<svg xmlns="http://www.w3.org/2000/svg" viewBox="0 0 750 500"><g id="freepik--background-simple--inject-788"><path d="M680.54,286.26a464.09,464.09,0,0,0-75.13-98.69c-31.58-31.62-63.77-53-105.3-66.82A308.41,308.41,0,0,0,413.2,105c-54.78-1.85-100,11.2-145,44.11C220,184.41,175,224.34,127.94,261.4q-7.36,5.81-14.79,11.51C31.15,335.86-8.68,447.68,46.77,475H684.84s58-3.07,43.73-65.44A456.34,456.34,0,0,0,680.54,286.26Z" style="fill:#92E3A9"></path><path d="M680.54,286.26a464.09,464.09,0,0,0-75.13-98.69c-31.58-31.62-63.77-53-105.3-66.82A308.41,308.41,0,0,0,413.2,105c-54.78-1.85-100,11.2-145,44.11C220,184.41,175,224.34,127.94,261.4q-7.36,5.81-14.79,11.51C31.15,335.86-8.68,447.68,46.77,475H684.84s58-3.07,43.73-65.44A456.34,456.34,0,0,0,680.54,286.26Z" style="fill:#fff;opacity:0.7000000000000001"></path></g><g id="freepik--Floor--inject-788"><path d="M728.09,475.51H37.58a.51.51,0,0,1-.5-.5.5.5,0,0,1,.5-.5H728.09a.5.5,0,0,1,.5.5A.51.51,0,0,1,728.09,475.51Z" style="fill:#263238"></path></g><g id="freepik--Clouds--inject-788"><path d="M293.18,95.32H158.57a.5.5,0,0,1-.46-.31.51.51,0,0,1,.11-.54c.78-.78,2.85-3.06,3.16-4.3.45-1.79,6.14-2.3,8.63-2.43a9.4,9.4,0,0,0,5.79-5.44c1.36-3.72,7.54-4.34,12.06-4.79,1.43-.15,2.66-.27,3.54-.46a9,9,0,0,0,3.49-1.73.51.51,0,0,1,.71.09.5.5,0,0,1-.09.7,9.78,9.78,0,0,1-3.9,1.91,34.77,34.77,0,0,1-3.65.48c-4.25.43-10.08,1-11.22,4.14a10.23,10.23,0,0,1-6.51,6.08l-.1,0c-4,.2-7.61,1-7.78,1.68a11.93,11.93,0,0,1-2.61,3.9H292.89c.69-1.23,3.41-7.07-2.93-12.71-3-2.66-7.31-2-11.11-1.48-4.11.6-8,1.17-8.85-2.92a.5.5,0,1,1,1-.2c.63,3,3.21,2.79,7.72,2.13,4-.58,8.58-1.25,11.93,1.72,7.64,6.8,3,14.16,3,14.23A.49.49,0,0,1,293.18,95.32Z" style="fill:#263238"></path><path d="M198.74,72.32a.51.51,0,0,1-.28-.09.49.49,0,0,1-.13-.69,31.44,31.44,0,0,0,3-5.72,9.13,9.13,0,0,1,5.57-5.42c4.09-1.41,9.67-.3,15.72,3.12,3.78,2.13,6.39,2.82,8.24,2.17,2.2-.77,3.27-3.46,4.64-6.86a15.88,15.88,0,0,1,8.69-8.37,17.86,17.86,0,0,1,14.19.27c6.55,2.77,9.8,10.1,11.37,15.77a.49.49,0,0,1-.34.61.5.5,0,0,1-.62-.35c-1.51-5.45-4.61-12.49-10.8-15.11a16.9,16.9,0,0,0-13.42-.27,15.14,15.14,0,0,0-8.15,7.82c-1.39,3.49-2.6,6.51-5.23,7.43-2.14.75-5,0-9.06-2.24-5.8-3.28-11.09-4.36-14.9-3a8.13,8.13,0,0,0-5,4.85,33.11,33.11,0,0,1-3.1,5.9A.52.52,0,0,1,198.74,72.32Z" style="fill:#263238"></path><path d="M152.55,148H105.8a.5.5,0,0,1,0-1h46.46c.46-.89,1.78-4.17-1.79-7.34-1.74-1.55-4.3-1.18-6.56-.85-2,.28-3.8.55-4.86-.51-.76-.76-1-2-.7-4-.09-.82-1.28-10.23-7.16-12.72a10,10,0,0,0-9.85.88.51.51,0,0,1-.7-.11.5.5,0,0,1,.12-.7,10.93,10.93,0,0,1,10.82-1c6.67,2.82,7.73,13.17,7.77,13.61a.48.48,0,0,1,0,.12c-.24,1.62-.1,2.7.41,3.21.7.71,2.23.49,4,.23,2.36-.34,5.28-.77,7.38,1.09,4.74,4.22,1.86,8.81,1.83,8.86A.52.52,0,0,1,152.55,148Z" style="fill:#263238"></path><path d="M672,148H625.29a.5.5,0,0,1,0-1h46.45c.47-.89,1.79-4.17-1.78-7.34-1.74-1.55-4.3-1.18-6.56-.85-2,.28-3.8.55-4.87-.51-.75-.76-1-2-.69-4-.1-.82-1.28-10.23-7.16-12.72a10,10,0,0,0-9.85.88.51.51,0,0,1-.7-.11.5.5,0,0,1,.12-.7,10.93,10.93,0,0,1,10.82-1c6.67,2.82,7.73,13.17,7.77,13.61v.12c-.24,1.62-.11,2.7.4,3.21.71.71,2.24.49,4,.23,2.35-.34,5.28-.77,7.37,1.09,4.75,4.22,1.86,8.81,1.83,8.86A.5.5,0,0,1,672,148Z" style="fill:#263238"></path><path d="M98.47,148H71.13a.5.5,0,0,1-.46-.31.51.51,0,0,1,.11-.54,8.6,8.6,0,0,0,1.86-2.51c.28-1.11,3.06-1.49,5.38-1.62a5.46,5.46,0,0,0,3.35-3.16c.86-2.37,4.67-2.75,7.46-3a19.65,19.65,0,0,0,2.11-.28c2.22-.49,4.3-2.86,5.87-6.67a5.81,5.81,0,0,1,3.49-3.39c2.53-.87,6-.2,9.67,1.9,2.2,1.24,3.77,1.67,4.82,1.3,1.25-.44,1.88-2,2.69-4a.51.51,0,0,1,.65-.28.5.5,0,0,1,.27.65c-.86,2.16-1.6,4-3.28,4.61-1.35.48-3.14,0-5.64-1.37-3.46-2-6.6-2.6-8.85-1.82a4.71,4.71,0,0,0-2.89,2.82c-2.18,5.28-4.78,6.87-6.58,7.27a18.37,18.37,0,0,1-2.23.29c-2.52.26-6,.6-6.62,2.38a6.43,6.43,0,0,1-4.07,3.8h-.11c-2.17.12-4.29.54-4.53.9A6.38,6.38,0,0,1,72.28,147H98.47a.5.5,0,0,1,0,1Z" style="fill:#263238"></path><path d="M618,148H590.62a.5.5,0,0,1-.46-.31.49.49,0,0,1,.11-.54,8.78,8.78,0,0,0,1.86-2.51c.27-1.11,3.06-1.49,5.38-1.62a5.49,5.49,0,0,0,3.35-3.16c.86-2.37,4.67-2.75,7.45-3a20.26,20.26,0,0,0,2.12-.28c2.22-.49,4.3-2.86,5.87-6.67a5.81,5.81,0,0,1,3.49-3.39c2.52-.87,6-.2,9.67,1.9,2.19,1.24,3.77,1.67,4.82,1.3,1.24-.44,1.88-2,2.68-4a.5.5,0,0,1,.93.38c-.86,2.15-1.61,4-3.28,4.6-1.35.48-3.15,0-5.65-1.37-3.45-2-6.6-2.6-8.85-1.82a4.76,4.76,0,0,0-2.89,2.82c-2.17,5.28-4.77,6.87-6.57,7.27a18.85,18.85,0,0,1-2.24.29c-2.52.26-6,.6-6.61,2.38a6.44,6.44,0,0,1-4.08,3.8h-.1c-2.17.12-4.29.54-4.53.9a6.42,6.42,0,0,1-1.33,2.09H618a.5.5,0,0,1,0,1Z" style="fill:#263238"></path><path d="M482.65,216.33H460.57a.5.5,0,0,1-.5-.5.5.5,0,0,1,.5-.5h21.79c.46-.89,1.78-4.17-1.79-7.35-1.74-1.55-4.3-1.17-6.56-.84-2,.28-3.8.55-4.86-.51-.76-.76-1-2-.7-4-.09-.82-1.28-10.24-7.16-12.72a10,10,0,0,0-8-.17,9,9,0,0,0-4.83,4.62c-.86,2.16-1.61,4-3.28,4.61-1.35.48-3.15,0-5.64-1.37-3.46-2-6.6-2.6-8.85-1.82a4.71,4.71,0,0,0-2.89,2.82c-2.18,5.28-4.78,6.87-6.58,7.27a20.62,20.62,0,0,1-2.23.29c-2.52.25-6,.6-6.62,2.38a6.37,6.37,0,0,1-4.07,3.79l-.11,0c-2.17.12-4.29.54-4.53.9a6.48,6.48,0,0,1-1.32,2.09h50.85a.5.5,0,0,1,.5.5.5.5,0,0,1-.5.5h-52a.5.5,0,0,1-.35-.86,8.57,8.57,0,0,0,1.86-2.5c.28-1.11,3.06-1.5,5.38-1.62a5.49,5.49,0,0,0,3.35-3.16c.86-2.37,4.67-2.75,7.46-3a19.65,19.65,0,0,0,2.11-.28c2.22-.49,4.3-2.86,5.87-6.67a5.76,5.76,0,0,1,3.49-3.39c2.53-.87,6-.2,9.67,1.9,2.2,1.24,3.78,1.67,4.82,1.3,1.24-.44,1.88-2,2.69-4a9.82,9.82,0,0,1,5.36-5.17,11,11,0,0,1,8.74.17c6.67,2.82,7.73,13.16,7.77,13.6a.48.48,0,0,1,0,.12c-.24,1.63-.1,2.71.4,3.22.71.71,2.24.49,4,.23,2.36-.35,5.28-.77,7.38,1.09,4.74,4.22,1.86,8.81,1.83,8.86A.52.52,0,0,1,482.65,216.33Z" style="fill:#263238"></path></g><g id="freepik--Trees--inject-788"><path d="M726.19,322.21c0,36.17-21.39,65.48-47.79,65.48s-47.78-29.31-47.78-65.48S652,161.74,678.4,161.74,726.19,286,726.19,322.21Z" style="fill:#92E3A9"></path><polygon points="705.2 341.13 690.73 346.48 693.63 337.77 686.71 347.97 679.81 350.52 679.31 321.92 704.45 288.52 690.98 302 693.26 292.63 686.81 306.16 679.17 313.8 678.4 269.11 675.67 334.29 651.84 309.04 664.93 326.83 652.59 325.46 667.83 330.78 675.38 341.04 674.06 372.46 665.28 366.5 673.79 378.97 669.75 475.01 681.95 475.01 679.89 355.08 705.2 341.13" style="fill:#263238"></polygon><path d="M704.69,269.26s.45,4.39-2,7.61-6.74,4.06-6.74,4.06a12.23,12.23,0,0,1,2-7.62C700.36,270.09,704.69,269.26,704.69,269.26Z" style="fill:#fff"></path><path d="M719.1,289.49s.44,4.39-2,7.61a12.16,12.16,0,0,1-6.73,4.06s-.45-4.39,2-7.61S719.1,289.49,719.1,289.49Z" style="fill:#fff"></path><path d="M719.09,328.89a12.19,12.19,0,0,1-4.41,6.51c-3.34,2.23-7.7,1.56-7.7,1.56s1.06-4.29,4.4-6.51A12.21,12.21,0,0,1,719.09,328.89Z" style="fill:#fff"></path><path d="M640,328.89a12.19,12.19,0,0,0,4.41,6.51c3.34,2.23,7.7,1.56,7.7,1.56s-1.06-4.29-4.4-6.51A12.21,12.21,0,0,0,640,328.89Z" style="fill:#fff"></path><path d="M702.45,312.54s.45,4.39-2,7.61-6.74,4.06-6.74,4.06a12.23,12.23,0,0,1,2-7.62C698.12,313.37,702.45,312.54,702.45,312.54Z" style="fill:#fff"></path><path d="M698.72,247.24a12.19,12.19,0,0,1-2,7.62c-2.4,3.22-6.74,4.05-6.74,4.05s-.44-4.39,2-7.61S698.72,247.24,698.72,247.24Z" style="fill:#fff"></path><path d="M690.14,264a12.23,12.23,0,0,1-2,7.62c-2.4,3.22-6.73,4.05-6.73,4.05s-.44-4.39,2-7.61S690.14,264,690.14,264Z" style="fill:#fff"></path><path d="M710.51,251.81s.45,4.39-2,7.61-6.74,4.06-6.74,4.06-.44-4.39,2-7.61A12.16,12.16,0,0,1,710.51,251.81Z" style="fill:#fff"></path><path d="M644.31,251.81s-.44,4.39,2,7.61,6.73,4.06,6.73,4.06.45-4.39-2-7.61S644.31,251.81,644.31,251.81Z" style="fill:#fff"></path><path d="M700.59,226.72s.44,4.39-2,7.61a12.16,12.16,0,0,1-6.73,4.06s-.44-4.39,2-7.61S700.59,226.72,700.59,226.72Z" style="fill:#fff"></path><path d="M696.37,204.92s1.53,4.14,0,7.86-5.5,5.62-5.5,5.62-1.53-4.14,0-7.86A12.25,12.25,0,0,1,696.37,204.92Z" style="fill:#fff"></path><path d="M666.15,199.23s3.91,2,5.28,5.82-.32,7.86-.32,7.86a10.4,10.4,0,0,1-5-13.68Z" style="fill:#fff"></path><path d="M680.24,225.29s2.79,3.43,2.56,7.44-3.39,7.09-3.39,7.09-2.79-3.42-2.55-7.43A12.21,12.21,0,0,1,680.24,225.29Z" style="fill:#fff"></path><path d="M679.5,186.49a10.39,10.39,0,0,1-.84,14.53s-2.78-3.43-2.55-7.44S679.5,186.49,679.5,186.49Z" style="fill:#fff"></path><path d="M647.87,269.26s-.44,4.39,2,7.61,6.73,4.06,6.73,4.06a12.23,12.23,0,0,0-2-7.62C652.2,270.09,647.87,269.26,647.87,269.26Z" style="fill:#fff"></path><path d="M639.66,293.13a12.23,12.23,0,0,0,2,7.62c2.4,3.22,6.73,4.06,6.73,4.06a12.19,12.19,0,0,0-2-7.62C644,294,639.66,293.13,639.66,293.13Z" style="fill:#fff"></path><path d="M661.45,301.8a12.23,12.23,0,0,0,2,7.62c2.4,3.22,6.73,4.06,6.73,4.06s.44-4.4-2-7.62S661.45,301.8,661.45,301.8Z" style="fill:#fff"></path><path d="M667.41,268.72s-1.68,4.08-.3,7.85,5.28,5.82,5.28,5.82a12.24,12.24,0,0,0,.31-7.86C671.32,270.76,667.41,268.72,667.41,268.72Z" style="fill:#fff"></path><path d="M652,356.76a12.2,12.2,0,0,0,7.43-2.58c3-2.65,3.49-7,3.49-7a12.2,12.2,0,0,0-7.43,2.58C652.46,352.37,652,356.76,652,356.76Z" style="fill:#fff"></path><path d="M694.31,351.93s1.2,4.25,4.62,6.37,7.75,1.31,7.75,1.31-1.2-4.25-4.61-6.37A12.23,12.23,0,0,0,694.31,351.93Z" style="fill:#fff"></path><path d="M656.9,247.24a12.23,12.23,0,0,0,2,7.62c2.4,3.22,6.73,4.05,6.73,4.05s.44-4.39-2-7.61S656.9,247.24,656.9,247.24Z" style="fill:#fff"></path><path d="M656.83,227.84s-.45,4.39,1.95,7.61,6.74,4.06,6.74,4.06.44-4.39-2-7.61S656.83,227.84,656.83,227.84Z" style="fill:#fff"></path><path d="M346.6,322.21c0,36.17-21.4,65.48-47.79,65.48S251,358.38,251,322.21s21.4-160.47,47.79-160.47S346.6,286,346.6,322.21Z" style="fill:#92E3A9"></path><polygon points="325.6 341.13 311.13 346.48 314.04 337.77 307.12 347.97 300.21 350.52 299.72 321.92 324.86 288.52 311.39 302 313.67 292.63 307.22 306.16 299.58 313.8 298.81 269.11 296.07 334.29 272.25 309.04 285.33 326.83 273 325.46 288.24 330.78 295.79 341.04 294.47 372.46 285.68 366.5 294.19 378.97 290.16 475.01 302.36 475.01 300.29 355.08 325.6 341.13" style="fill:#263238"></polygon><path d="M325.1,269.26s.44,4.39-2,7.61-6.73,4.06-6.73,4.06a12.23,12.23,0,0,1,2-7.62C320.77,270.09,325.1,269.26,325.1,269.26Z" style="fill:#fff"></path><path d="M339.5,289.49s.44,4.39-2,7.61a12.16,12.16,0,0,1-6.73,4.06s-.44-4.39,2-7.61S339.5,289.49,339.5,289.49Z" style="fill:#fff"></path><path d="M339.5,328.89A10.4,10.4,0,0,1,327.38,337s1.07-4.29,4.41-6.51S339.5,328.89,339.5,328.89Z" style="fill:#fff"></path><path d="M260.4,328.89A10.38,10.38,0,0,0,272.51,337s-1.06-4.29-4.41-6.51S260.4,328.89,260.4,328.89Z" style="fill:#fff"></path><path d="M322.86,312.54s.44,4.39-2,7.61-6.73,4.06-6.73,4.06a12.23,12.23,0,0,1,2-7.62C318.53,313.37,322.86,312.54,322.86,312.54Z" style="fill:#fff"></path><path d="M319.13,247.24a12.23,12.23,0,0,1-2,7.62c-2.4,3.22-6.73,4.05-6.73,4.05s-.44-4.39,2-7.61S319.13,247.24,319.13,247.24Z" style="fill:#fff"></path><path d="M310.55,264a12.23,12.23,0,0,1-2,7.62c-2.4,3.22-6.73,4.05-6.73,4.05s-.44-4.39,2-7.61S310.55,264,310.55,264Z" style="fill:#fff"></path><path d="M330.92,251.81s.44,4.39-2,7.61-6.73,4.06-6.73,4.06-.44-4.39,2-7.61A12.16,12.16,0,0,1,330.92,251.81Z" style="fill:#fff"></path><path d="M264.72,251.81s-.44,4.39,2,7.61,6.73,4.06,6.73,4.06.44-4.39-2-7.61A12.16,12.16,0,0,0,264.72,251.81Z" style="fill:#fff"></path><path d="M321,226.72s.45,4.39-1.95,7.61-6.74,4.06-6.74,4.06-.44-4.39,2-7.61S321,226.72,321,226.72Z" style="fill:#fff"></path><path d="M316.78,204.92s1.53,4.14,0,7.86a12.19,12.19,0,0,1-5.5,5.62s-1.53-4.14,0-7.86S316.78,204.92,316.78,204.92Z" style="fill:#fff"></path><path d="M286.56,199.23s3.91,2,5.28,5.82-.32,7.86-.32,7.86-3.91-2-5.28-5.83A12.17,12.17,0,0,1,286.56,199.23Z" style="fill:#fff"></path><path d="M300.65,225.29s2.79,3.43,2.55,7.44a12.2,12.2,0,0,1-3.38,7.09s-2.79-3.42-2.56-7.43A12.19,12.19,0,0,1,300.65,225.29Z" style="fill:#fff"></path><path d="M299.9,186.49s2.79,3.42,2.56,7.43a12.19,12.19,0,0,1-3.39,7.1s-2.79-3.43-2.55-7.44A12.2,12.2,0,0,1,299.9,186.49Z" style="fill:#fff"></path><path d="M268.28,269.26s-.44,4.39,2,7.61,6.73,4.06,6.73,4.06a12.23,12.23,0,0,0-2-7.62C272.61,270.09,268.28,269.26,268.28,269.26Z" style="fill:#fff"></path><path d="M260.07,293.13a12.23,12.23,0,0,0,2,7.62c2.4,3.22,6.73,4.06,6.73,4.06a12.23,12.23,0,0,0-2-7.62C264.4,294,260.07,293.13,260.07,293.13Z" style="fill:#fff"></path><path d="M281.86,301.8a12.23,12.23,0,0,0,2,7.62c2.4,3.22,6.73,4.06,6.73,4.06s.44-4.4-2-7.62S281.86,301.8,281.86,301.8Z" style="fill:#fff"></path><path d="M287.82,268.72s-1.69,4.08-.31,7.85a12.21,12.21,0,0,0,5.29,5.82,12.2,12.2,0,0,0,.3-7.86C291.73,270.76,287.82,268.72,287.82,268.72Z" style="fill:#fff"></path><path d="M272.39,356.76s4.41.08,7.42-2.58,3.5-7,3.5-7-4.42-.08-7.43,2.58S272.39,356.76,272.39,356.76Z" style="fill:#fff"></path><path d="M314.72,351.93s1.2,4.25,4.61,6.37a12.2,12.2,0,0,0,7.75,1.31s-1.19-4.25-4.61-6.37S314.72,351.93,314.72,351.93Z" style="fill:#fff"></path><path d="M277.31,247.24a12.23,12.23,0,0,0,2,7.62c2.4,3.22,6.73,4.05,6.73,4.05s.44-4.39-2-7.61S277.31,247.24,277.31,247.24Z" style="fill:#fff"></path><path d="M277.23,227.84s-.44,4.39,2,7.61a12.16,12.16,0,0,0,6.73,4.06s.44-4.39-2-7.61S277.23,227.84,277.23,227.84Z" style="fill:#fff"></path><path d="M122.21,375.84c0,23.47-13.88,42.5-31,42.5s-31-19-31-42.5,13.89-104.16,31-104.16S122.21,352.36,122.21,375.84Z" style="fill:#92E3A9"></path><polygon points="108.59 388.12 99.2 391.59 101.08 385.94 96.59 392.55 92.11 394.21 91.79 375.65 108.1 353.97 99.36 362.71 100.84 356.63 96.66 365.42 91.7 370.38 91.2 341.37 89.42 383.67 73.96 367.29 82.45 378.83 74.44 377.94 84.33 381.4 89.24 388.06 88.38 408.45 82.68 404.58 88.2 412.67 85.58 475.01 93.5 475.01 92.16 397.17 108.59 388.12" style="fill:#263238"></polygon><path d="M108.26,341.47a6.73,6.73,0,0,1-5.64,7.57,6.73,6.73,0,0,1,5.64-7.57Z" style="fill:#fff"></path><path d="M117.61,354.6a6.73,6.73,0,0,1-5.64,7.57,6.73,6.73,0,0,1,5.64-7.57Z" style="fill:#fff"></path><path d="M117.6,380.17a6.74,6.74,0,0,1-7.86,5.24,6.74,6.74,0,0,1,7.86-5.24Z" style="fill:#fff"></path><path d="M66.27,380.17a7.9,7.9,0,0,0,2.85,4.23,8,8,0,0,0,5,1,7.94,7.94,0,0,0-2.86-4.23A8,8,0,0,0,66.27,380.17Z" style="fill:#fff"></path><path d="M106.81,369.56a6.73,6.73,0,0,1-5.64,7.57,6.73,6.73,0,0,1,5.64-7.57Z" style="fill:#fff"></path><path d="M104.39,327.18a6.75,6.75,0,0,1-5.65,7.57,6.75,6.75,0,0,1,5.65-7.57Z" style="fill:#fff"></path><path d="M98.82,338.08a6.75,6.75,0,0,1-5.64,7.57,6.73,6.73,0,0,1,5.64-7.57Z" style="fill:#fff"></path><path d="M112,330.14a6.75,6.75,0,0,1-5.64,7.58,6.73,6.73,0,0,1,5.64-7.58Z" style="fill:#fff"></path><path d="M69.07,330.14a6.75,6.75,0,0,0,5.64,7.58,6.73,6.73,0,0,0-5.64-7.58Z" style="fill:#fff"></path><path d="M105.6,313.86a6.73,6.73,0,0,1-5.64,7.57,6.73,6.73,0,0,1,5.64-7.57Z" style="fill:#fff"></path><path d="M102.86,299.71a6.74,6.74,0,0,1-3.56,8.75,6.74,6.74,0,0,1,3.56-8.75Z" style="fill:#fff"></path><path d="M83.25,296a6.75,6.75,0,0,1,3.22,8.88A6.73,6.73,0,0,1,83.25,296Z" style="fill:#fff"></path><path d="M92.39,312.93a6.73,6.73,0,0,1-.54,9.43,6.74,6.74,0,0,1,.54-9.43Z" style="fill:#fff"></path><path d="M91.91,287.75a6.74,6.74,0,0,1-.54,9.43,6.73,6.73,0,0,1,.54-9.43Z" style="fill:#fff"></path><path d="M71.38,341.47A6.73,6.73,0,0,0,77,349a6.73,6.73,0,0,0-5.64-7.57Z" style="fill:#fff"></path><path d="M66.05,357a8,8,0,0,0,1.27,5,7.92,7.92,0,0,0,4.37,2.63A6.75,6.75,0,0,0,66.05,357Z" style="fill:#fff"></path><path d="M80.19,362.59a6.76,6.76,0,0,0,5.65,7.58,6.75,6.75,0,0,0-5.65-7.58Z" style="fill:#fff"></path><path d="M84.06,341.12A6.73,6.73,0,0,0,87.3,350a6.74,6.74,0,0,0-3.24-8.87Z" style="fill:#fff"></path><path d="M74.05,398.26a7.94,7.94,0,0,0,4.82-1.67A8,8,0,0,0,81.13,392a6.72,6.72,0,0,0-7.08,6.24Z" style="fill:#fff"></path><path d="M101.52,395.13a6.75,6.75,0,0,0,8,5,6.75,6.75,0,0,0-8-5Z" style="fill:#fff"></path><path d="M77.24,327.18a6.73,6.73,0,0,0,5.64,7.57,6.73,6.73,0,0,0-5.64-7.57Z" style="fill:#fff"></path><path d="M77.19,314.58a8,8,0,0,0,1.27,4.95,7.92,7.92,0,0,0,4.37,2.63,6.75,6.75,0,0,0-5.64-7.58Z" style="fill:#fff"></path><path d="M469.72,359.82c0,27.27-16.13,49.37-36,49.37s-36-22.1-36-49.37,16.12-121,36-121S469.72,332.56,469.72,359.82Z" style="fill:#92E3A9"></path><polygon points="453.9 374.08 442.99 378.12 445.18 371.55 439.96 379.24 434.76 381.17 434.39 359.6 453.34 334.43 443.18 344.58 444.9 337.52 440.04 347.72 434.28 353.48 433.7 319.8 431.63 368.93 413.68 349.9 423.54 363.31 414.24 362.27 425.73 366.28 431.42 374.02 430.43 397.71 423.8 393.21 430.22 402.61 427.18 475.01 436.38 475.01 434.82 384.6 453.9 374.08" style="fill:#263238"></polygon><path d="M453.52,319.9a7.84,7.84,0,0,1-6.55,8.8,7.82,7.82,0,0,1,6.55-8.8Z" style="fill:#fff"></path><path d="M464.37,335.16a7.8,7.8,0,0,1-6.55,8.79,7.83,7.83,0,0,1,6.55-8.79Z" style="fill:#fff"></path><path d="M464.37,364.86a7.84,7.84,0,0,1-9.13,6.08,7.82,7.82,0,0,1,9.13-6.08Z" style="fill:#fff"></path><path d="M404.74,364.86a7.84,7.84,0,0,0,9.13,6.08,7.82,7.82,0,0,0-9.13-6.08Z" style="fill:#fff"></path><path d="M451.83,352.53a7.84,7.84,0,0,1-6.55,8.8,7.82,7.82,0,0,1,6.55-8.8Z" style="fill:#fff"></path><path d="M449,303.31a7.82,7.82,0,0,1-6.55,8.79,7.81,7.81,0,0,1,6.55-8.79Z" style="fill:#fff"></path><path d="M442.55,316a7.84,7.84,0,0,1-6.55,8.8,7.82,7.82,0,0,1,6.55-8.8Z" style="fill:#fff"></path><path d="M457.91,306.75a7.83,7.83,0,0,1-6.56,8.8,7.83,7.83,0,0,1,6.56-8.8Z" style="fill:#fff"></path><path d="M408,306.75a7.84,7.84,0,0,0,6.55,8.8,7.82,7.82,0,0,0-6.55-8.8Z" style="fill:#fff"></path><path d="M450.42,287.84a7.82,7.82,0,0,1-6.55,8.8,7.84,7.84,0,0,1,6.55-8.8Z" style="fill:#fff"></path><path d="M447.24,271.4a7.82,7.82,0,0,1-4.13,10.17,7.84,7.84,0,0,1,4.13-10.17Z" style="fill:#fff"></path><path d="M424.46,267.11a7.82,7.82,0,0,1,3.74,10.31,7.82,7.82,0,0,1-3.74-10.31Z" style="fill:#fff"></path><path d="M435.09,286.76a7.84,7.84,0,0,1-.63,10.95,7.81,7.81,0,0,1,.63-10.95Z" style="fill:#fff"></path><path d="M434.52,257.51a7.81,7.81,0,0,1-.63,10.95,7.84,7.84,0,0,1,.63-10.95Z" style="fill:#fff"></path><path d="M410.68,319.9a7.84,7.84,0,0,0,6.55,8.8,7.82,7.82,0,0,0-6.55-8.8Z" style="fill:#fff"></path><path d="M404.49,337.9a7.83,7.83,0,0,0,6.56,8.8,7.83,7.83,0,0,0-6.56-8.8Z" style="fill:#fff"></path><path d="M420.92,344.44a7.84,7.84,0,0,0,6.55,8.8,7.82,7.82,0,0,0-6.55-8.8Z" style="fill:#fff"></path><path d="M425.41,319.5a7.81,7.81,0,0,0,3.76,10.3,7.81,7.81,0,0,0-3.76-10.3Z" style="fill:#fff"></path><path d="M413.78,385.87a7.82,7.82,0,0,0,8.23-7.25,7.82,7.82,0,0,0-8.23,7.25Z" style="fill:#fff"></path><path d="M445.69,382.23A7.82,7.82,0,0,0,455,388a7.81,7.81,0,0,0-9.32-5.78Z" style="fill:#fff"></path><path d="M417.49,303.31A7.82,7.82,0,0,0,424,312.1a7.81,7.81,0,0,0-6.55-8.79Z" style="fill:#fff"></path><path d="M417.43,288.68a7.84,7.84,0,0,0,6.55,8.8,7.82,7.82,0,0,0-6.55-8.8Z" style="fill:#fff"></path></g><g id="freepik--Characters--inject-788"><path d="M481,166.74,479,255,481,314l-3.23,2.34.59,5s-7.34,11.44-7.92,12.32-1.76,2.64-.3,3.52,18.78,0,18.78,0,2.64.88,2.93-5.28a63.68,63.68,0,0,1,1.76-11.73s2.05-5.28,1.47-7.92-1.18-7-.88-9.1S508.3,202.53,508.3,202.53l4.4-.29,19.65,51.92-9.68,56.9-4.69,8.8.29,6.75L517.1,331s4.69,3.81,6.45,4.11,6.75-.59,7.63-.59,5,1.47,10.27,1.76,8.21-1.17,7.62-2.35-8.21-4.69-9.68-6.16-5.28-6.16-5.28-6.16,2-3.22,2-4.1-.29-6.75,0-7.63,19.37-53.09,19.66-57.2-21.12-78.32-21.12-78.32l-1.36-10.08Z" style="fill:#263238"></path><path d="M476,338.06c-3,0-5.5-.11-6.08-.46a1.82,1.82,0,0,1-.91-1.19c-.25-1.11.56-2.31,1-3s6.95-10.8,7.82-12.16l-.57-4.81a.5.5,0,0,1,.21-.46l3-2.19-2.05-58.7,2.06-88.32a.49.49,0,0,1,.47-.49l52.33-2.45a.5.5,0,0,1,.52.44l1.35,10.07c.86,3,21.42,74.28,21.13,78.43-.18,2.42-6.48,20.83-18.74,54.7l-.94,2.62a47.54,47.54,0,0,0,0,6.16c0,.62,0,1.1,0,1.31,0,.85-1.31,3.05-1.94,4.07.84,1,3.79,4.61,5,5.84a30.63,30.63,0,0,0,4.62,2.87c3,1.65,4.79,2.69,5.15,3.42a1.19,1.19,0,0,1-.1,1.23c-.86,1.32-4.07,2.06-8,1.84a46.25,46.25,0,0,1-8.61-1.41,12,12,0,0,0-1.63-.35c-.25,0-1,.09-1.79.2a28.12,28.12,0,0,1-5.92.38c-1.84-.31-6.2-3.81-6.69-4.21a.52.52,0,0,1-.17-.52l1.16-4.32-.29-6.67a.4.4,0,0,1,.06-.26l4.65-8.73,9.65-56.69-19.48-51.45-3.62.24c-1,6.89-13.75,98.25-14,100.21s.25,6.09.88,8.92-1.41,8-1.49,8.21a64.38,64.38,0,0,0-1.73,11.57c-.13,2.83-.77,4.65-1.9,5.42a2,2,0,0,1-1.58.34C487,337.77,480.81,338.06,476,338.06Zm2.33-21.48.55,4.69a.48.48,0,0,1-.07.33c-.3.47-7.34,11.46-7.93,12.33-.36.55-1.05,1.57-.89,2.26a.84.84,0,0,0,.44.55c.91.52,10.21.35,18.49-.07a.63.63,0,0,1,.19,0,1.08,1.08,0,0,0,.83-.21c.47-.34,1.29-1.39,1.44-4.62A64.4,64.4,0,0,1,493.15,320c0-.11,2-5.22,1.46-7.68s-1.2-7.06-.89-9.28c.29-2,13.95-99.62,14.08-100.61a.52.52,0,0,1,.46-.43l4.41-.29a.5.5,0,0,1,.5.32L532.82,254a.46.46,0,0,1,0,.26l-9.68,56.91a.3.3,0,0,1,0,.15L518.48,320l.29,6.61a.76.76,0,0,1,0,.15l-1.09,4.09c1.44,1.15,4.71,3.59,6,3.79a29,29,0,0,0,5.64-.38c.92-.12,1.6-.21,1.91-.21a10.54,10.54,0,0,1,1.86.37,45,45,0,0,0,8.43,1.39c4.37.25,6.68-.72,7.12-1.39.08-.13,0-.19,0-.23-.24-.49-3-2-4.74-3a30,30,0,0,1-4.84-3c-1.47-1.47-5.16-6-5.32-6.2a.5.5,0,0,1,0-.58,16.24,16.24,0,0,0,2-3.84c0-.2,0-.67,0-1.28-.12-3.64-.15-5.87.06-6.51l.95-2.64c15.23-42.09,18.57-52.83,18.68-54.44.23-3.17-13.7-52.5-21.1-78.14l-1.31-9.7-51.4,2.41-2.05,87.83L481.52,314a.5.5,0,0,1-.21.42Z" style="fill:#263238"></path><path d="M484.76,97.91l-16.05,6.31a6.71,6.71,0,0,0-4.18,5.3l-7.87,46.63,21.4-4.42,1.46,17s2.31,2.72,3.77,2.09,49.64-3.35,49.64-3.35.83-.42.41-3.14-.62-15.5-.62-15.5,11.33,2.7,13.21,1.65,28.49-45.12,28.49-45.12l-4.9-3.62-25.89,24.45s-9.38-24.93-9.8-26c-.19-.48-.7-2.21-1.2-4a6.29,6.29,0,0,0-5.58-4.53l-15.28-1.12Z" style="fill:#92E3A9"></path><path d="M482.82,171.38c-1.62,0-3.45-2.1-3.68-2.37a.54.54,0,0,1-.11-.28l-1.42-16.4-20.85,4.31a.52.52,0,0,1-.45-.13.5.5,0,0,1-.15-.45L464,109.44a7.22,7.22,0,0,1,4.5-5.68l16.05-6.32.05,0,27-7.33a.5.5,0,0,1,.17,0l15.28,1.12a6.83,6.83,0,0,1,6,4.89c.79,2.75,1.08,3.64,1.19,3.9.38,1,8,21.14,9.53,25.28l25.34-23.94a.51.51,0,0,1,.65,0l4.9,3.62a.51.51,0,0,1,.13.66c-4.46,7.38-26.77,44.24-28.67,45.3s-10.11-.8-12.95-1.45c0,2.62.25,12.48.61,14.79.44,2.86-.42,3.52-.69,3.66a.46.46,0,0,1-.2.05c-19.13,1.08-48.1,2.86-49.47,3.32A1.65,1.65,0,0,1,482.82,171.38Zm-2.81-2.9c.73.82,2.28,2.19,3.09,1.84,1.48-.63,43.94-3.06,49.63-3.38.09-.15.4-.78.12-2.57-.42-2.73-.62-15-.63-15.57a.46.46,0,0,1,.18-.39.48.48,0,0,1,.43-.1c4.31,1,11.61,2.39,12.86,1.69,1.49-1,17.51-27.06,28.07-44.55l-4.2-3.1L544,126.51a.5.5,0,0,1-.45.13.51.51,0,0,1-.36-.32c-.09-.25-9.38-24.93-9.79-26-.17-.42-.57-1.72-1.22-4A5.81,5.81,0,0,0,527,92.2l-15.2-1.12-26.9,7.3-16,6.31a6.25,6.25,0,0,0-3.87,4.9l-7.75,45.92L478,151.24a.5.5,0,0,1,.6.44Z" style="fill:#263238"></path><polygon points="494.85 106.89 501.3 113.34 500.06 165.89 510.72 177.54 516.17 164.89 504.02 112.59 507 104.91 499.81 98.71 494.85 106.89" style="fill:#fff"></polygon><path d="M510.72,178a.48.48,0,0,1-.37-.17l-10.66-11.65a.45.45,0,0,1-.13-.35l1.23-52.33-6.29-6.3a.5.5,0,0,1-.08-.61l5-8.18a.52.52,0,0,1,.35-.23.5.5,0,0,1,.41.11l7.18,6.2a.5.5,0,0,1,.14.56l-2.91,7.54,12.11,52.15a.55.55,0,0,1,0,.31l-5.46,12.64a.48.48,0,0,1-.37.3ZM500.56,165.7l10,10.93,5.08-11.78-12.1-52.14a.44.44,0,0,1,0-.3l2.84-7.35-6.47-5.58-4.45,7.33,6.17,6.17a.51.51,0,0,1,.15.37Z" style="fill:#263238"></path><path d="M532.72,149.29a.49.49,0,0,1-.5-.45L529,114a.5.5,0,0,1,1-.09l3.18,34.85a.49.49,0,0,1-.45.54Z" style="fill:#263238"></path><path d="M477.93,149.59s-18.62,3-20.21,5-2.31,12.23-1.06,14.72,5,3,7.8,1.77,15.07-16,15.07-16A8.18,8.18,0,0,0,477.93,149.59Z" style="fill:#92E3A9"></path><path d="M461.36,172.17a5.52,5.52,0,0,1-5.15-2.68c-1.33-2.66-.55-13.21,1.12-15.26s17.38-4.63,20.52-5.14a.5.5,0,0,1,.48.19,8.58,8.58,0,0,1,1.69,5.86.47.47,0,0,1-.11.26c-.5.61-12.34,14.82-15.25,16.1A8.43,8.43,0,0,1,461.36,172.17Zm16.35-22c-7.15,1.17-18.54,3.44-19.6,4.74-1.46,1.77-2.17,11.84-1,14.17s4.62,2.65,7.16,1.54c2.21-1,11.32-11.54,14.78-15.7A7.8,7.8,0,0,0,477.71,150.13Z" style="fill:#263238"></path><path d="M475.63,148.49h0a.5.5,0,0,1-.48-.51l.71-27.31a.5.5,0,1,1,1,0l-.71,27.3A.51.51,0,0,1,475.63,148.49Z" style="fill:#263238"></path><path d="M508.84,68.59s4,6.7,3.77,8.17S506.33,82,506.33,82l1.88,6.49-8.58,14.24-11.31-9.63-1.47-5c-1.46.21-11.72-4.39-15.28-6.91s-5.87-9.21-3.35-18,10.47-12.56,10.47-12.56,9-2.72,13.82-.84,9,5,9.63,8.38,5.24,2.93,6.28,3.35a2.87,2.87,0,0,1,1.26,4A5.06,5.06,0,0,0,508.84,68.59Z" style="fill:#bdbdbd"></path><path d="M499.63,103.22a.52.52,0,0,1-.33-.12L488,93.47a.49.49,0,0,1-.16-.24l-1.37-4.69c-2.63-.37-12-4.76-15.19-7C467.62,79,465.1,72.23,467.74,63a21.73,21.73,0,0,1,10.73-12.88c.45-.14,9.3-2.78,14.22-.86,4.33,1.7,9.22,4.89,9.94,8.75.42,2.23,3,2.54,4.66,2.74a6,6,0,0,1,1.32.24,3.47,3.47,0,0,1,1.8,2.09,3,3,0,0,1-.31,2.62,4.84,4.84,0,0,0-.77,2.72c.8,1.34,4,6.88,3.78,8.4s-4.45,4.28-6.19,5.38l1.78,6.13a.55.55,0,0,1-.06.4L500.06,103a.54.54,0,0,1-.35.24ZM488.76,92.81,499.51,102l8.16-13.55-1.82-6.28a.49.49,0,0,1,.22-.56c2.82-1.76,5.94-4.12,6.05-4.89s-1.8-4.62-3.71-7.84a.55.55,0,0,1-.06-.18,5.58,5.58,0,0,1,.91-3.48,2.09,2.09,0,0,0,.2-1.78,2.48,2.48,0,0,0-1.22-1.47,6.73,6.73,0,0,0-1.07-.18c-1.74-.21-5-.6-5.52-3.54s-4.19-6-9.32-8c-4.6-1.8-13.41.82-13.5.85s-7.71,3.76-10.13,12.22c-2.49,8.71-.11,15.16,3.15,17.46,3.78,2.67,13.79,7,14.93,6.83a.52.52,0,0,1,.56.35Z" style="fill:#263238"></path><path d="M490.83,77.17a16.5,16.5,0,0,1-3.56,2.1c-1.67.63-3.77-.42-5-3.14s1.25-4.82,2.72-5,1.26,1.05,2.72,1.05,2.72-.63,2.1-1.47-.21-2.51-.42-3.77-1.68-3.77-5.24-5S482,59.58,482,59.58s2.51-3.14,4.19-5.65c1-1.45,4-3,6.44-4.12l-.16-.07c-4.82-1.88-13.82.84-13.82.84s-8,3.77-10.47,12.56-.21,15.5,3.35,18,13.82,7.12,15.28,6.91a20.38,20.38,0,0,0,2.31-4.81C489.58,81.36,490.83,77.17,490.83,77.17Z" style="fill:#263238"></path><path d="M486.78,88.57c-2.09,0-12.21-4.69-15.5-7C467.62,79,465.1,72.23,467.74,63a21.73,21.73,0,0,1,10.73-12.88c.45-.14,9.3-2.78,14.22-.86l.1,0a.56.56,0,0,1,.34.47.5.5,0,0,1-.26.48c-3.31,1.49-5.53,2.89-6.23,4-1.67,2.5-4.19,5.65-4.21,5.69l-.1.09h0s-.11.09-.09.18.15.57,2.06,1.25c3.91,1.38,5.35,4.14,5.56,5.41a8.72,8.72,0,0,1,.07,1.62,3.54,3.54,0,0,0,.26,1.93,1.1,1.1,0,0,1,.15,1.2c-.39.79-1.67,1.07-2.65,1.07A2.23,2.23,0,0,1,486,72a1,1,0,0,0-1-.35,3.55,3.55,0,0,0-2.29,1.75,2.75,2.75,0,0,0-.05,2.57c1.05,2.27,2.86,3.46,4.4,2.88a16.44,16.44,0,0,0,3.43-2,.51.51,0,0,1,.59,0,.5.5,0,0,1,.19.56s-1.25,4.19-1.66,6a21,21,0,0,1-2.37,5,.49.49,0,0,1-.36.23Zm1.42-39a38.38,38.38,0,0,0-9.37,1.48s-7.71,3.76-10.13,12.22c-2.49,8.71-.11,15.16,3.15,17.46,3.6,2.54,12.92,6.6,14.73,6.82a18.49,18.49,0,0,0,2.09-4.42c.27-1.21.87-3.33,1.28-4.73a13.44,13.44,0,0,1-2.5,1.33c-2.06.76-4.38-.63-5.66-3.4a3.76,3.76,0,0,1,.08-3.47,4.52,4.52,0,0,1,3-2.26,1.92,1.92,0,0,1,1.8.6,1.27,1.27,0,0,0,1,.44,2.37,2.37,0,0,0,1.76-.51.22.22,0,0,0-.06-.16,4.09,4.09,0,0,1-.46-2.55,7.33,7.33,0,0,0-.06-1.43c-.14-.86-1.3-3.37-4.9-4.64-1.72-.61-2.61-1.28-2.72-2.06a1.2,1.2,0,0,1,.43-1.07c.31-.39,2.59-3.27,4.13-5.58.74-1.1,2.58-2.37,5.49-3.76A13.93,13.93,0,0,0,488.2,49.58Z" style="fill:#263238"></path><path d="M501.51,60.21c.45.94.43,1.89,0,2.11s-1.22-.36-1.66-1.3-.42-1.89.05-2.11S501.07,59.27,501.51,60.21Z" style="fill:#263238"></path><path d="M497.53,58a.59.59,0,0,1-.22-.05.49.49,0,0,1-.22-.67,2.31,2.31,0,0,1,3.18-1.07.5.5,0,0,1,.22.68.5.5,0,0,1-.66.22h0a1.31,1.31,0,0,0-1.85.61A.49.49,0,0,1,497.53,58Z" style="fill:#263238"></path><path d="M506,71.14a4.34,4.34,0,0,1-1.95-.43.5.5,0,0,1-.22-.67.49.49,0,0,1,.67-.22,4.68,4.68,0,0,0,3.36,0,.5.5,0,1,1,.37.93A6.68,6.68,0,0,1,506,71.14Z" style="fill:#263238"></path><polygon points="506.33 81.99 501.72 83.25 508.21 88.48 506.33 81.99" style="fill:#263238"></polygon><path d="M508.21,89a.45.45,0,0,1-.31-.11l-6.49-5.23a.49.49,0,0,1-.18-.49.48.48,0,0,1,.36-.38l4.61-1.26a.5.5,0,0,1,.61.34l1.89,6.49a.51.51,0,0,1-.21.56A.46.46,0,0,1,508.21,89Zm-5.41-5.51,4.49,3.63L506,82.6Z" style="fill:#263238"></path><polygon points="499.63 102.72 491.67 115.5 482.46 97.91 488.32 93.09 499.63 102.72" style="fill:#92E3A9"></polygon><path d="M491.67,116h0a.49.49,0,0,1-.42-.27L482,98.14a.51.51,0,0,1,.13-.62L488,92.7a.5.5,0,0,1,.64,0L500,102.34a.51.51,0,0,1,.1.65l-7.95,12.77A.52.52,0,0,1,491.67,116Zm-8.58-18,8.62,16.45L499,102.82l-10.67-9.08Z" style="fill:#263238"></path><polygon points="499.63 102.72 510.94 111.31 513.66 90.37 508.21 88.48 499.63 102.72" style="fill:#92E3A9"></polygon><path d="M510.94,111.81a.57.57,0,0,1-.31-.1l-11.3-8.59a.5.5,0,0,1-.13-.66l8.59-14.24a.5.5,0,0,1,.59-.21l5.44,1.89a.49.49,0,0,1,.34.53l-2.73,20.94a.48.48,0,0,1-.3.4A.43.43,0,0,1,510.94,111.81Zm-10.65-9.21,10.26,7.79,2.56-19.68-4.68-1.62Z" style="fill:#263238"></path><path d="M341,87.92a19.72,19.72,0,0,0-13-6.07c-8.33-.57-14.12,9.17-16.38,16s3.53,11.15,10.45,12.7,7.76-9,7.62-12.7,1-9.18,3.11-9.74,6.92,1.13,6.92,1.13Z" style="fill:#263238"></path><path d="M323.37,111.16a6.7,6.7,0,0,1-1.43-.17c-4.87-1.09-8.62-3.42-10.3-6.39a8.31,8.31,0,0,1-.51-7c2.11-6.33,8.05-16.89,16.88-16.29a20.07,20.07,0,0,1,13.34,6.24.51.51,0,0,1,0,.68l-1.27,1.27a.5.5,0,0,1-.52.12c-1.3-.46-5-1.55-6.62-1.12S330,94,330.17,97.78c0,.36.3,9-3.58,12.22A4.88,4.88,0,0,1,323.37,111.16Zm3.92-28.84c-7.87,0-13.24,9.74-15.21,15.64a7.36,7.36,0,0,0,.43,6.15c1.54,2.72,5.06,4.87,9.65,5.9a4.13,4.13,0,0,0,3.79-.78c2.81-2.34,3.34-8.49,3.22-11.41-.14-3.77,1-9.59,3.48-10.25,1.94-.52,5.8.67,6.91,1l.71-.71A19.62,19.62,0,0,0,328,82.34Z" style="fill:#263238"></path><path d="M366.24,101.19a6,6,0,0,0,1-3c0-1.55-4.66-10.45-9.17-12.28S341.39,84.25,338,89.47s-9.31,10.73-7.34,15.53a16.64,16.64,0,0,0,4.94,6.91s3.81,1.84,4.66,2.12,3.11-.42,4.52-2,1.13-5.65,1.13-5.65l5.93-10.31s10.87,3.11,11.29,3.81S366.24,101.19,366.24,101.19Z" style="fill:#263238"></path><path d="M340.71,114.59a2.25,2.25,0,0,1-.61-.08c-.86-.29-4.56-2.07-4.71-2.15a16.8,16.8,0,0,1-5.19-7.17c-1.61-3.91,1.58-8.14,4.67-12.23.94-1.24,1.91-2.52,2.71-3.76,3.53-5.44,15.84-5.68,20.66-3.72,4.66,1.89,9.48,10.86,9.48,12.74a6.45,6.45,0,0,1-1.07,3.25.49.49,0,0,1-.52.2c-.68-.14-2.93-.67-3.43-1.5-.47-.39-5.71-2.07-10.63-3.48l-5.66,9.84c0,.79.13,4.33-1.26,5.86A6.84,6.84,0,0,1,340.71,114.59Zm10.23-29.24c-4.93,0-10.49,1.26-12.52,4.39-.82,1.27-1.8,2.57-2.75,3.83-2.92,3.86-5.94,7.85-4.55,11.24a16.58,16.58,0,0,0,4.77,6.7c1,.46,3.86,1.82,4.53,2s2.69-.41,4-1.84c1-1.14,1.07-4.2,1-5.28a.46.46,0,0,1,.06-.28l5.93-10.31a.52.52,0,0,1,.57-.23c7.34,2.1,11.24,3.46,11.59,4a6.06,6.06,0,0,0,2.44,1,5.2,5.2,0,0,0,.72-2.4c0-1.39-4.54-10.06-8.86-11.82A19.75,19.75,0,0,0,350.94,85.35Z" style="fill:#263238"></path><path d="M347.32,121l-.42,10.3S324,139.44,324,140s-3,41.92-3.53,43.47,3.67,9.46,7.34,10.59,6.63-2.26,7.48-5.5,3.81-13.41,3.81-13.41.14,10.87,1,11.85,3.39,1,3.39,1h36.42s1.55-1,1.83-2,1.42-10.31,1.42-10.31,14.11,16.52,15.38,16.09,27.81-28.09,27.81-28.09l-2.68-5.08L401,169.37l-12-28.52s-2-4.8-2.54-5.22-22.73-6.07-22.73-6.07l-1.41-7.2Z" style="fill:#92E3A9"></path><path d="M329.27,194.79a5.46,5.46,0,0,1-1.58-.24c-2.44-.75-5.09-4.2-6.62-7.29-.54-1.07-1.38-3-1-3.95.49-1.5,3.45-41,3.5-43.31,0-.44,0-.91,22.88-9.1l.41-10a.49.49,0,0,1,.17-.36.47.47,0,0,1,.38-.12l15,1.41a.5.5,0,0,1,.44.4l1.35,6.89c8.35,2.13,22.05,5.66,22.6,6.08s2.1,4,2.71,5.43l11.79,28,22.26-10.5a.48.48,0,0,1,.65.22l2.68,5.08a.5.5,0,0,1-.08.58c-6.24,6.51-26.72,27.79-28,28.22-1,.35-6.13-4.83-15.19-15.38-.31,2.58-1,8.43-1.29,9.25a5.21,5.21,0,0,1-2,2.26.53.53,0,0,1-.27.08H343.51c-.29,0-2.8,0-3.77-1.16-.65-.76-.92-5.41-1-8.92-.95,3.27-2.37,8.2-2.91,10.27a8.79,8.79,0,0,1-3.91,5.4A5.31,5.31,0,0,1,329.27,194.79Zm-4.76-54.53c-.22,3.47-3,41.82-3.54,43.4-.1.27.08,1.33,1,3.16,1.4,2.8,3.88,6.11,6,6.77a4.17,4.17,0,0,0,3.41-.37,7.88,7.88,0,0,0,3.44-4.78c.84-3.22,3.78-13.32,3.81-13.42a.51.51,0,0,1,.55-.36.5.5,0,0,1,.43.49c.07,5.17.41,10.9.87,11.54s2.11.81,3,.81h36.27a4.09,4.09,0,0,0,1.5-1.61c.2-.7,1-6.5,1.4-10.23a.49.49,0,0,1,.35-.42.47.47,0,0,1,.52.16c6.29,7.34,13.55,15.3,14.92,15.9,1.61-1.11,17-17,27.29-27.66l-2.29-4.34-22.3,10.52a.48.48,0,0,1-.39,0,.47.47,0,0,1-.28-.27l-12-28.51a33.56,33.56,0,0,0-2.39-5c-.73-.35-13.89-3.77-22.54-6a.48.48,0,0,1-.37-.38l-1.34-6.84L347.8,121.5l-.4,9.77a.48.48,0,0,1-.34.45C339,134.6,326.11,139.35,324.51,140.26Zm22.39-9h0Z" style="fill:#263238"></path><path d="M383.18,176.22h-.08a.5.5,0,0,1-.42-.56l1.41-9.6a.5.5,0,0,1,1,.14l-1.41,9.6A.5.5,0,0,1,383.18,176.22Z" style="fill:#263238"></path><path d="M395.88,177.91a.54.54,0,0,1-.27-.07.5.5,0,0,1-.15-.69l5.08-8.05a.5.5,0,0,1,.84.54l-5.08,8A.48.48,0,0,1,395.88,177.91Z" style="fill:#263238"></path><path d="M394.61,175.8a.5.5,0,0,1-.34-.87l4.52-4.1a.51.51,0,0,1,.71,0,.49.49,0,0,1,0,.7l-4.51,4.1A.55.55,0,0,1,394.61,175.8Z" style="fill:#263238"></path><path d="M360.31,149.46l12.06-17.67c-4.66-1.21-8.68-2.23-8.68-2.23l-.85-9.23-17.22-2.62,1.28,13.54s-4,1.43-8.62,3.13Z" style="fill:#fff"></path><path d="M360.31,150a.6.6,0,0,1-.29-.08l-22-15.09a.49.49,0,0,1-.22-.47.5.5,0,0,1,.33-.41c3.8-1.4,7.17-2.61,8.25-3l-1.24-13.15a.51.51,0,0,1,.16-.41.47.47,0,0,1,.42-.13l17.22,2.62a.5.5,0,0,1,.42.45l.82,8.87,8.33,2.15a.5.5,0,0,1,.35.3.53.53,0,0,1-.06.46l-12.06,17.68a.54.54,0,0,1-.32.21Zm-20.95-15.45,20.82,14.26,11.37-16.67-8-2.06a.49.49,0,0,1-.37-.43l-.82-8.84-16.2-2.47,1.21,12.91a.49.49,0,0,1-.33.51Z" style="fill:#263238"></path><polygon points="362.28 122.36 346.74 128.57 345.99 119.21 362.28 122.36" style="fill:#263238"></polygon><path d="M346.74,129.07a.52.52,0,0,1-.5-.46l-.74-9.36a.45.45,0,0,1,.16-.41.49.49,0,0,1,.43-.12l16.29,3.15a.49.49,0,0,1,.4.44.5.5,0,0,1-.31.51L346.93,129A.41.41,0,0,1,346.74,129.07Zm-.19-9.25.64,8,13.33-5.32Z" style="fill:#263238"></path><path d="M340.54,111.77s-3.67-2-4.94.14S337,118,340,119.11s4.52-.42,4.52-.42,2.82,4.23,5.92,5.36,9.75,3.11,11.86,1.7,4.84-4.52,5.08-7.77c.57-7.62-1.55-17.64-2.25-19s-14.69-5.23-14.69-5.23-2.25,6.64-4.37,9-3.25,3.53-3.25,3.53a3.08,3.08,0,0,1-.28,3A10.46,10.46,0,0,1,340.54,111.77Z" style="fill:#fff"></path><path d="M360,126.73c-3.47,0-8.53-1.76-9.76-2.21-2.65-1-5-4-5.87-5.12a5,5,0,0,1-4.58.18,8.78,8.78,0,0,1-4.75-4.91,3.53,3.53,0,0,1,.12-3c1.27-2.11,4.27-1,5.28-.49a11.17,11.17,0,0,0,1.64-2.19,2.61,2.61,0,0,0,.27-2.47.52.52,0,0,1,.09-.6s1.14-1.15,3.22-3.5,4.26-8.8,4.28-8.87a.5.5,0,0,1,.61-.32c4.26,1.16,14.27,4,15,5.48.82,1.63,2.88,11.69,2.31,19.32-.24,3.33-2.92,6.56-5.3,8.14A4.66,4.66,0,0,1,360,126.73Zm-15.51-8.54h.05a.53.53,0,0,1,.36.22s2.77,4.11,5.69,5.17c4.52,1.65,9.8,2.82,11.41,1.75,1.82-1.21,4.62-4.18,4.86-7.38.56-7.68-1.58-17.54-2.21-18.8-.53-.78-7.41-3.05-13.92-4.84-.55,1.55-2.46,6.65-4.32,8.76-1.58,1.79-2.6,2.87-3,3.31a3.76,3.76,0,0,1-.44,3.1,11,11,0,0,1-2.08,2.67.48.48,0,0,1-.56.06s-3.27-1.72-4.28,0a2.65,2.65,0,0,0,0,2.17,7.78,7.78,0,0,0,4.16,4.31c2.59,1,3.93-.26,4-.32A.5.5,0,0,1,344.5,118.19Z" style="fill:#263238"></path><path d="M357.13,117.44a9,9,0,0,1-6.21-2.21.48.48,0,0,1,0-.7.49.49,0,0,1,.7,0,8.53,8.53,0,0,0,6.79,1.84.5.5,0,0,1,.56.43.5.5,0,0,1-.44.56A11.58,11.58,0,0,1,357.13,117.44Z" style="fill:#263238"></path><path d="M353.59,106c.39,1.06.22,2.09-.36,2.31s-1.38-.48-1.76-1.54-.23-2.1.36-2.31S353.2,104.91,353.59,106Z" style="fill:#263238"></path><path d="M362.36,104.75c.38,1.06.22,2.1-.36,2.31s-1.38-.47-1.77-1.54-.22-2.09.36-2.31S362,103.69,362.36,104.75Z" style="fill:#263238"></path><path d="M357.34,112.27a.51.51,0,0,1-.47-.32.52.52,0,0,1,.3-.65l3.67-1.34-1-1.6-2.81-4.07a.54.54,0,0,1-.08-.21l-.43-3.11a.51.51,0,0,1,.43-.56.51.51,0,0,1,.57.43l.4,3,2.76,4L362,110a.54.54,0,0,1,0,.43.5.5,0,0,1-.3.3l-4.24,1.55A.47.47,0,0,1,357.34,112.27Z" style="fill:#263238"></path><path d="M348.73,104.37a.43.43,0,0,1-.22-.06.5.5,0,0,1-.23-.67c.06-.11,1.44-2.81,4.26-2.81a.5.5,0,0,1,.5.5.5.5,0,0,1-.5.5c-2.19,0-3.35,2.24-3.36,2.26A.5.5,0,0,1,348.73,104.37Z" style="fill:#263238"></path><path d="M363.69,102.11a.5.5,0,0,1-.26-.08,4.75,4.75,0,0,0-4.59-.4.5.5,0,0,1-.46-.89,5.77,5.77,0,0,1,5.58.45.5.5,0,0,1-.27.92Z" style="fill:#263238"></path><path d="M339.68,282.8a117.49,117.49,0,0,0-1,33.11c2,19,1.79,43.41,1.79,43.41s-6.54,6.94-8.13,8.52-4.36,2.38-2.78,3.77,19,0,19,0,2.18-1.78,2-4-.79-8.53-.79-9.32,7.93-49.76,7.33-57.89-.2-18.63-.2-18.63Z" style="fill:#fff"></path><path d="M335.52,372.73c-3.08,0-5.65-.19-6.28-.74a1.58,1.58,0,0,1-.65-1.26c.05-.8.87-1.36,1.82-2a11.31,11.31,0,0,0,1.58-1.23c1.43-1.44,7-7.37,8-8.37,0-2.35.08-25.27-1.78-43.16a119.18,119.18,0,0,1,1-33.26.48.48,0,0,1,.46-.4l17.24-1a.45.45,0,0,1,.38.14.5.5,0,0,1,.15.38c0,.1-.39,10.57.2,18.58.48,6.52-4.4,38.56-6.49,52.24-.46,3.05-.83,5.46-.85,5.69,0,.65.45,5.49.69,8.1l.11,1.16c.22,2.42-2.07,4.32-2.17,4.4a.54.54,0,0,1-.27.11C346.82,372.25,340.49,372.73,335.52,372.73Zm4.57-89.45a120.44,120.44,0,0,0-.91,32.57c2,18.84,1.79,43.23,1.79,43.47a.48.48,0,0,1-.14.34c-.06.07-6.56,7-8.14,8.54a11.76,11.76,0,0,1-1.72,1.34c-.6.42-1.36.94-1.38,1.25a.75.75,0,0,0,.3.45c.89.77,10.07.55,18.5-.11.42-.38,1.84-1.82,1.69-3.44l-.11-1.16c-.33-3.63-.68-7.55-.68-8.2,0-.18.16-1.27.85-5.83,2.08-13.65,6.95-45.61,6.48-52-.51-7-.29-15.87-.22-18.14Zm.38,76h0Z" style="fill:#263238"></path><path d="M348.6,371.61s2.18-1.78,2-4c-.06-.68-.16-1.75-.27-2.93l-7.07,3.12a17.12,17.12,0,0,1-6.14-1.38,11.19,11.19,0,0,0-2.59-.85c-.94,1-1.74,1.8-2.17,2.23-1.59,1.59-4.36,2.38-2.78,3.77S348.6,371.61,348.6,371.61Z" style="fill:#92E3A9"></path><path d="M335.52,372.73c-3.08,0-5.65-.19-6.29-.74a1.59,1.59,0,0,1-.64-1.26c.05-.8.87-1.36,1.82-2a11.31,11.31,0,0,0,1.58-1.23c.43-.43,1.22-1.26,2.15-2.23a.5.5,0,0,1,.45-.15,12.44,12.44,0,0,1,2.71.89,16.64,16.64,0,0,0,5.84,1.34l7-3.08a.51.51,0,0,1,.7.41l.27,2.93c.22,2.42-2.07,4.32-2.17,4.4a.54.54,0,0,1-.27.11C346.82,372.25,340.49,372.73,335.52,372.73Zm-.84-6.58c-.86.89-1.58,1.64-2,2.05a11.76,11.76,0,0,1-1.72,1.34c-.61.42-1.36.94-1.38,1.25a.71.71,0,0,0,.3.44c.89.78,10.07.56,18.5-.11.42-.38,1.84-1.81,1.69-3.43l-.2-2.23-6.43,2.84a.52.52,0,0,1-.21,0,17.27,17.27,0,0,1-6.34-1.43A12.74,12.74,0,0,0,334.68,366.15Zm13.92,5.46h0Z" style="fill:#263238"></path><path d="M388.18,282.8a117.74,117.74,0,0,1,1,33.11c-2,19-1.78,43.41-1.78,43.41s6.54,6.94,8.12,8.52,4.37,2.38,2.78,3.77-19,0-19,0-2.18-1.78-2-4,.79-8.53.79-9.32-7.93-49.76-7.34-57.89.2-18.63.2-18.63Z" style="fill:#fff"></path><path d="M392.33,372.73c-5,0-11.29-.48-13.11-.62a.57.57,0,0,1-.28-.11c-.1-.08-2.38-2-2.16-4.4l.1-1.16c.24-2.61.69-7.45.69-8.11,0-.22-.38-2.63-.85-5.68-2.08-13.68-7-45.72-6.48-52.24.58-8,.2-18.48.19-18.58a.54.54,0,0,1,.15-.38.45.45,0,0,1,.38-.14l17.25,1a.5.5,0,0,1,.46.4,119.18,119.18,0,0,1,1,33.26c-1.87,17.89-1.8,40.81-1.78,43.16.94,1,6.54,6.93,8,8.37a11.31,11.31,0,0,0,1.58,1.23c.95.65,1.76,1.21,1.81,2a1.56,1.56,0,0,1-.64,1.26C398,372.54,395.42,372.73,392.33,372.73Zm-12.87-1.6c8.43.66,17.61.88,18.5.11.2-.18.31-.34.3-.45,0-.31-.77-.83-1.38-1.25a12.31,12.31,0,0,1-1.72-1.34c-1.57-1.58-8.07-8.47-8.14-8.54a.51.51,0,0,1-.13-.34c0-.24-.18-24.63,1.78-43.47a119.54,119.54,0,0,0-.91-32.57l-16.31-.94c.07,2.27.3,11.13-.22,18.14-.47,6.41,4.4,38.37,6.48,52,.7,4.56.86,5.65.86,5.83,0,.65-.36,4.57-.69,8.2l-.11,1.16C377.63,369.31,379.05,370.75,379.46,371.13Z" style="fill:#263238"></path><path d="M379.26,371.61s-2.18-1.78-2-4c.06-.68.16-1.75.26-2.93l7.07,3.12a17.19,17.19,0,0,0,6.15-1.38,11,11,0,0,1,2.59-.85c.93,1,1.73,1.8,2.16,2.23,1.59,1.59,4.37,2.38,2.78,3.77S379.26,371.61,379.26,371.61Z" style="fill:#92E3A9"></path><path d="M392.33,372.73c-5,0-11.29-.48-13.11-.62a.57.57,0,0,1-.28-.11c-.1-.08-2.38-2-2.16-4.4l.27-2.93a.47.47,0,0,1,.24-.38.53.53,0,0,1,.46,0l7,3.08a16.59,16.59,0,0,0,5.85-1.34,12.56,12.56,0,0,1,2.7-.89.5.5,0,0,1,.45.15c.93,1,1.73,1.8,2.16,2.23a11.31,11.31,0,0,0,1.58,1.23c.95.65,1.76,1.21,1.81,2a1.56,1.56,0,0,1-.64,1.26C398,372.54,395.42,372.73,392.33,372.73Zm-12.87-1.61c8.43.67,17.61.89,18.5.11.2-.17.31-.33.3-.44,0-.31-.77-.83-1.38-1.25a12.31,12.31,0,0,1-1.72-1.34l-2-2.05a12.47,12.47,0,0,0-2.22.76,17.27,17.27,0,0,1-6.35,1.43.45.45,0,0,1-.2,0L378,365.46l-.21,2.23C377.63,369.31,379.05,370.74,379.46,371.12Z" style="fill:#263238"></path><path d="M380.88,187l-20.6-1.36L339.69,187s-8.3,16.4-8.3,44.76a375.92,375.92,0,0,0,4.16,53.8h54.69a388.84,388.84,0,0,0,3.44-51.42C393.68,205.79,380.88,187,380.88,187Z" style="fill:#263238"></path><path d="M390.24,286.07H335.55a.49.49,0,0,1-.49-.42,378.09,378.09,0,0,1-4.17-53.88c0-28.16,8.27-44.82,8.35-45a.53.53,0,0,1,.42-.28l20.59-1.36,20.66,1.36a.5.5,0,0,1,.38.22c.13.19,12.89,19.23,12.89,47.42a393.47,393.47,0,0,1-3.45,51.5A.5.5,0,0,1,390.24,286.07Zm-54.26-1H389.8a395.15,395.15,0,0,0,3.38-50.92c0-26.32-11.23-44.56-12.59-46.65l-20.34-1.35L340,187.49c-1,2.19-8.13,18.26-8.13,44.28A378.6,378.6,0,0,0,336,285.07Z" style="fill:#263238"></path><path d="M334.5,178s-2.11,4.36-4,5.5-5.7-.57-6.56-1.43-2.56-3.7-3.7-4.56-2.57-2-2.57-2l14-2Z" style="fill:#fff"></path><path d="M329,184.33a9.39,9.39,0,0,1-5.33-2,19.19,19.19,0,0,1-1.41-1.81,15.6,15.6,0,0,0-2.24-2.71c-1.15-.86-2.58-2-2.58-2a.48.48,0,0,1-.17-.52.49.49,0,0,1,.41-.36l14-2a.49.49,0,0,1,.49.23l2.84,4.47a.48.48,0,0,1,0,.49c-.09.18-2.2,4.5-4.16,5.7A3.4,3.4,0,0,1,329,184.33Zm-10-8.54c.49.39,1.1.86,1.65,1.27A15.78,15.78,0,0,1,323,180a17.67,17.67,0,0,0,1.31,1.68c.76.76,4.38,2.31,5.94,1.35,1.33-.81,3-3.71,3.66-5l-2.52-4Z" style="fill:#263238"></path><path d="M183,229.52,179.23,259,165.72,372.69l-2.86,2.07,1.3,9.61s-5.45,6.75-6.75,9.09-3.12,4.15-.26,4.93,18.69,0,18.69,0,2.86-1.56,3.12-3.12a39.44,39.44,0,0,0,.26-4.67s1-5.45,1.29-8.05-.77-7.79-.77-7.79L209.33,266l2.86-.26L243.6,376.06s-3.11,4.15-3.11,4.93a84.2,84.2,0,0,0,2.85,9.87c.52,1-.77,5.71.26,6.49s22.07,0,22.07,0,2.6-3.12,2.08-4.15-10.13-10.91-10.13-10.91l1.82-3.89-3.89-8.57L247.24,301,236.5,230.62Z" style="fill:#263238"></path><path d="M163.34,399.23a34,34,0,0,1-6.32-.36,2.36,2.36,0,0,1-1.78-1.26c-.38-.95.29-2,1-3.26.23-.36.46-.74.68-1.14a108.26,108.26,0,0,1,6.66-9l-1.27-9.39a.52.52,0,0,1,.21-.47l2.68-1.95,13.49-113.49,3.78-29.47A.52.52,0,0,1,183,229l53.48,1.1a.51.51,0,0,1,.49.43L247.73,301l8.3,68.74,3.87,8.5a.48.48,0,0,1,0,.42l-1.67,3.58c2,2.11,9.47,9.77,10,10.78.6,1.2-1.3,3.69-2.14,4.7a.53.53,0,0,1-.37.18c-6.38.24-21.32.7-22.39-.1-.82-.61-.64-2.36-.46-4.2a8.77,8.77,0,0,0,.06-2.47A79.55,79.55,0,0,1,240,381c0-.79,1.85-3.41,3.07-5L211.82,266.25l-2.1.2L180.25,374.78c.15.81,1,5.37.76,7.82s-1.26,7.87-1.3,8.09a37.3,37.3,0,0,1-.26,4.67c-.29,1.74-3,3.3-3.37,3.47a.83.83,0,0,1-.21.06C175.44,398.91,168.73,399.23,163.34,399.23ZM163.4,375l1.25,9.31a.5.5,0,0,1-.1.38c-.06.07-5.44,6.75-6.71,9-.22.41-.47.8-.7,1.18-.6,1-1.16,1.88-1,2.37.13.33.67.54,1.11.66,2.62.71,17,0,18.42,0,1-.58,2.61-1.77,2.76-2.7a39.88,39.88,0,0,0,.26-4.59c0-.15,1-5.55,1.3-8.1s-.76-7.59-.77-7.64a.45.45,0,0,1,0-.23l29.6-108.78a.51.51,0,0,1,.44-.37l2.85-.26a.5.5,0,0,1,.53.36l31.42,110.34a.5.5,0,0,1-.09.44,26.3,26.3,0,0,0-3,4.65,88.17,88.17,0,0,0,2.8,9.63,6.61,6.61,0,0,1,.05,3c-.11,1.05-.31,3,.06,3.3,1,.47,13.66.2,21.53-.09,1.18-1.46,2.06-3.07,1.87-3.44-.36-.71-6.35-7-10-10.78a.49.49,0,0,1-.1-.56l1.72-3.69-3.8-8.35a.83.83,0,0,1,0-.15l-8.31-68.8-10.67-70L183.46,230l-3.73,29-13.52,113.7a.49.49,0,0,1-.2.35Zm2.32-2.3h0Z" style="fill:#263238"></path><path d="M199.25,152.79,174,169.39l10.51,48.69L183,229.52s14.75,7.37,31,6.63,22.32-3.87,22.5-5.53-.55-10.88-.55-11.43,2.58-24,2.58-24S254.39,218.08,259,219s21.4-3.69,21.4-5,.55-8.11-.92-8.48S262,200,262,200s-23.23-40.95-24.71-42-15.31-4.61-15.31-4.61Z" style="fill:#bdbdbd"></path><path d="M211.73,236.71c-15.26,0-28.79-6.68-28.93-6.75a.5.5,0,0,1-.28-.51L184,218.1l-10.5-48.6a.51.51,0,0,1,.22-.53L199,152.38a.65.65,0,0,1,.29-.09l22.69.56h.11c1.42.36,14,3.56,15.48,4.7s20.65,34.8,24.75,42c1.8.58,15.95,5.12,17.31,5.46s1.52,3.2,1.33,8c0,.42,0,.75,0,1a.92.92,0,0,1-.39.68c-2.11,1.73-17.32,5.65-21.6,4.79s-16.57-18-20-22.9c-.79,7.16-2.41,22-2.43,22.6,0,.14.05.87.12,1.9.28,4,.56,8.42.43,9.59-.27,2.38-7.57,5.27-23,6C213.26,236.69,212.49,236.71,211.73,236.71Zm-28.17-7.49c2.23,1.05,15.81,7.11,30.42,6.44,16.46-.75,21.9-4,22-5.09s-.24-6.53-.44-9.41c-.08-1.22-.12-1.82-.12-2,0-.57,2.32-21.63,2.58-24a.51.51,0,0,1,.38-.43.49.49,0,0,1,.53.2c4.38,6.31,16.54,22.86,20.16,23.58,4.48.9,19.57-3.34,20.8-4.6,0-.21,0-.51,0-.88.25-6.13-.32-6.94-.58-7-1.47-.36-16.89-5.33-17.55-5.54a.49.49,0,0,1-.28-.23c-9.23-16.26-23.4-40.85-24.59-41.9-1-.76-9.54-3.1-15.07-4.51l-22.47-.54-24.85,16.32L185,218a.29.29,0,0,1,0,.16Z" style="fill:#263238"></path><path d="M253.29,213.23h-.12a.5.5,0,0,1-.37-.61c1.68-6.72,7.14-11.15,7.37-11.33a.49.49,0,0,1,.7.07.51.51,0,0,1-.08.71c-.05,0-5.42,4.4-7,10.79A.5.5,0,0,1,253.29,213.23Z" style="fill:#263238"></path><path d="M252.55,206.59a.52.52,0,0,1-.29-.09.5.5,0,0,1-.12-.7,14.12,14.12,0,0,1,4.61-4,.5.5,0,0,1,.67.23.49.49,0,0,1-.22.67,13,13,0,0,0-4.24,3.71A.51.51,0,0,1,252.55,206.59Z" style="fill:#263238"></path><path d="M238.53,195.71h0a.5.5,0,0,1-.49-.51c0-.16.35-16.6-1.09-22.56a.5.5,0,0,1,1-.23c1.48,6.08,1.14,22.13,1.12,22.81A.5.5,0,0,1,238.53,195.71Z" style="fill:#263238"></path><path d="M239.09,190.92l-.14,0a.51.51,0,0,1-.35-.62s1.09-4,1.09-14.43a.5.5,0,0,1,.5-.5.5.5,0,0,1,.5.5c0,10.64-1.08,14.54-1.12,14.7A.52.52,0,0,1,239.09,190.92Z" style="fill:#263238"></path><path d="M242.59,185.94a.51.51,0,0,1-.17,0,.5.5,0,0,1-.3-.64A24.82,24.82,0,0,0,243,182a.51.51,0,0,1,.59-.4.5.5,0,0,1,.39.59,25,25,0,0,1-.91,3.39A.49.49,0,0,1,242.59,185.94Z" style="fill:#263238"></path><path d="M243.92,179.67h0a.5.5,0,0,1-.45-.55A43,43,0,0,0,243,168a.51.51,0,0,1,.4-.59.5.5,0,0,1,.58.4,43.45,43.45,0,0,1,.42,11.4A.51.51,0,0,1,243.92,179.67Z" style="fill:#263238"></path><path d="M181.54,189.63a.51.51,0,0,1-.44-.27.49.49,0,0,1,.2-.67c.11-.06,10.42-5.72,13.63-11.79a.5.5,0,0,1,.68-.2.5.5,0,0,1,.21.67c-3.35,6.33-13.6,12-14,12.19A.42.42,0,0,1,181.54,189.63Z" style="fill:#263238"></path><path d="M188.18,188.15a.49.49,0,0,1-.42-.24.5.5,0,0,1,.16-.69c2.07-1.26,4.18-2.67,6.26-4.18a.49.49,0,0,1,.7.11.51.51,0,0,1-.11.7c-2.11,1.52-4.23,2.94-6.33,4.23A.48.48,0,0,1,188.18,188.15Z" style="fill:#263238"></path><path d="M196.47,182.46a.5.5,0,0,1-.3-.9c1.05-.8,1.65-1.3,1.65-1.3a.51.51,0,0,1,.71.06.52.52,0,0,1-.07.71s-.61.5-1.69,1.32A.48.48,0,0,1,196.47,182.46Z" style="fill:#263238"></path><polygon points="205.59 168.98 212.02 178.96 206.07 230.28 214.27 241.06 222 229.8 214.59 178.64 220.55 167.21 213.15 159.17 205.59 168.98" style="fill:#92E3A9"></polygon><path d="M214.27,241.56a.51.51,0,0,1-.4-.2l-8.2-10.78a.51.51,0,0,1-.1-.36l5.93-51.14-6.34-9.83a.5.5,0,0,1,0-.57l7.56-9.82a.5.5,0,0,1,.37-.19.47.47,0,0,1,.39.16l7.41,8a.5.5,0,0,1,.07.57l-5.88,11.28,7.38,51a.48.48,0,0,1-.08.35l-7.72,11.26a.49.49,0,0,1-.41.22Zm-7.68-11.42,7.66,10.07,7.22-10.53-7.37-51a.48.48,0,0,1,.05-.31l5.79-11.11-6.76-7.35-7,9.07,6.24,9.68a.53.53,0,0,1,.08.33Z" style="fill:#263238"></path><path d="M210.89,161.74,213,167l2.59-5.39,2.88,2.35,3.72-6.21-.65-10s-14.32.49-22-8.68l2.09,18,6.34,8.33Z" style="fill:#fff"></path><path d="M213,167.47h0a.49.49,0,0,1-.45-.31l-1.77-4.44-2.45,3a.6.6,0,0,1-.4.18.5.5,0,0,1-.39-.2l-6.34-8.33a.54.54,0,0,1-.09-.25l-2.1-18a.51.51,0,0,1,.3-.51.51.51,0,0,1,.58.13c7.48,8.88,21.5,8.51,21.65,8.52a.49.49,0,0,1,.51.46l.65,10a.59.59,0,0,1-.07.29l-3.72,6.21a.53.53,0,0,1-.34.24.51.51,0,0,1-.4-.11l-2.39-1.95-2.31,4.82A.52.52,0,0,1,213,167.47Zm-2.08-6.23H211a.48.48,0,0,1,.39.31l1.66,4.17,2.09-4.36a.51.51,0,0,1,.34-.28.55.55,0,0,1,.43.1l2.43,2,3.34-5.58-.61-9.35c-2.49,0-13.71-.42-20.89-7.71L202,156.88l5.87,7.72,2.6-3.17A.49.49,0,0,1,210.89,161.24Z" style="fill:#263238"></path><polygon points="209.84 148.8 201.13 153.62 199.83 140.65 209.84 148.8" style="fill:#263238"></polygon><path d="M201.13,154.12a.46.46,0,0,1-.23-.06.52.52,0,0,1-.27-.39l-1.29-13a.49.49,0,0,1,.26-.49.49.49,0,0,1,.55,0l10,8.15a.49.49,0,0,1,.18.43.5.5,0,0,1-.25.4l-8.71,4.81A.42.42,0,0,1,201.13,154.12Zm-.68-12.32,1.1,11,7.4-4.09Z" style="fill:#263238"></path><polygon points="210.89 161.74 212.97 166.97 215.56 161.58 220.36 165.5 213.3 175.67 206.09 167.63 210.89 161.74" style="fill:#bdbdbd"></polygon><path d="M213.3,176.17a.5.5,0,0,1-.37-.17l-7.22-8a.5.5,0,0,1,0-.65l4.81-5.88a.5.5,0,0,1,.85.13l1.66,4.17,2.09-4.36a.51.51,0,0,1,.34-.28.55.55,0,0,1,.43.1l4.79,3.92a.5.5,0,0,1,.1.67L213.71,176a.47.47,0,0,1-.38.22Zm-6.56-8.56,6.51,7.25,6.43-9.27-3.94-3.22-2.32,4.82a.5.5,0,0,1-.46.28.49.49,0,0,1-.45-.31l-1.77-4.44Z" style="fill:#263238"></path><path d="M196.25,133.75s-2.57-1.29-2.73,2.25,3.86,6.76,5.47,6.76h1.61s.48,3.54,6.43,6.59,13.84,1.29,15.45-.32,4-3.38,4.18-8.85,0-12.71-3.38-19.3-8.2-10.94-16.41-9.5-13.51,8.85-14.32,12.23S196.25,133.75,196.25,133.75Z" style="fill:#fff"></path><path d="M214.54,151.54a17,17,0,0,1-7.74-1.74c-5-2.55-6.27-5.46-6.6-6.54H199a6.33,6.33,0,0,1-3.75-2.19A7.29,7.29,0,0,1,193,136a3.06,3.06,0,0,1,1.2-2.69,2.08,2.08,0,0,1,1-.27c-1.24-2.05-3.8-6.75-3.14-9.52.84-3.53,6.18-11.1,14.71-12.61,7.48-1.32,12.86,1.78,16.95,9.76,3.34,6.52,3.61,13.54,3.43,19.55-.15,5.15-2.29,7.22-3.86,8.73l-.47.46C221.8,150.42,218.44,151.54,214.54,151.54ZM195.26,134a1,1,0,0,0-.53.13c-.42.25-.67.9-.71,1.87a6.3,6.3,0,0,0,1.94,4.35,5.56,5.56,0,0,0,3,1.89h1.61a.49.49,0,0,1,.49.43s.57,3.34,6.17,6.22c5.87,3,13.53,1.1,14.86-.23l.49-.47c1.52-1.47,3.41-3.29,3.55-8,.17-5.88-.08-12.74-3.32-19.07-3.86-7.52-8.9-10.46-15.88-9.22-8.25,1.45-13.23,9-13.92,11.85-.75,3.13,3.59,9.67,3.63,9.74a.5.5,0,0,1,0,.61.51.51,0,0,1-.6.12h0A1.81,1.81,0,0,0,195.26,134Z" style="fill:#263238"></path><path d="M196.25,134.25a.47.47,0,0,1-.17,0l-.31-.12a.5.5,0,0,1,.32-.95,2.33,2.33,0,0,1,.38.15.5.5,0,0,1,.24.65A.51.51,0,0,1,196.25,134.25Z" style="fill:#263238"></path><path d="M212,113.8c2.57-.07,4.35-.13,5.56-.19-2.78-2.08-6.24-3-10.71-2.23-8.2,1.45-13.51,8.85-14.32,12.23s3.7,10.14,3.7,10.14l1.13,1.12a3.57,3.57,0,0,0,3.06-.64c1.28-1.13-.16-2.9-.16-5s3.21-4.18,2.89-5-1.93-1.45-1.61-3.87S205.75,114,212,113.8Z" style="fill:#263238"></path><path d="M198.29,135.48a4.36,4.36,0,0,1-1-.12.54.54,0,0,1-.22-.13l-1.13-1.13c-.25-.36-4.68-7-3.83-10.6s6.18-11.1,14.71-12.61c4.36-.77,8,0,11.1,2.32a.5.5,0,0,1-.28.9c-1.21.06-3,.12-5.57.19h0c-6.11.15-9.69,4-10,6.16a3,3,0,0,0,1,2.76,2.94,2.94,0,0,1,.62.85c.25.63-.32,1.27-1.09,2.15s-1.77,2-1.77,3a7.5,7.5,0,0,0,.37,2.07c.32,1.17.66,2.39-.38,3.3A3.76,3.76,0,0,1,198.29,135.48Zm-.66-1.06a3,3,0,0,0,2.48-.57c.54-.47.4-1.1.07-2.27a8.79,8.79,0,0,1-.4-2.34c0-1.38,1.12-2.65,2-3.68a4.91,4.91,0,0,0,.9-1.19,4.25,4.25,0,0,0-.41-.48,4,4,0,0,1-1.21-3.56c.37-2.77,4.48-6.87,10.94-7h0c1.63,0,3-.09,4-.13a13,13,0,0,0-9-1.29c-8.25,1.45-13.23,9-13.92,11.85-.75,3.13,3.59,9.67,3.63,9.74ZM212,113.8h0Z" style="fill:#263238"></path><path d="M220.71,135.53a.5.5,0,0,1-.16-1,13.67,13.67,0,0,0,3.07-1.36,14.84,14.84,0,0,0-1.6-2.5,12.64,12.64,0,0,1-2-3.28,6.28,6.28,0,0,1,.86-3.74.5.5,0,0,1,.86.5,5.28,5.28,0,0,0-.74,3,13,13,0,0,0,1.8,2.91c1.47,2.07,2.11,3,1.65,3.62s-2.91,1.54-3.62,1.78A.47.47,0,0,1,220.71,135.53Z" style="fill:#263238"></path><path d="M217,140.56a6.16,6.16,0,0,1-5.19-2.35.5.5,0,0,1,.13-.7.51.51,0,0,1,.7.14c.09.13,2.15,3,7.31,1.41a.5.5,0,0,1,.3,1A11,11,0,0,1,217,140.56Z" style="fill:#263238"></path><path d="M209.61,124.92a.53.53,0,0,1-.39-.18.51.51,0,0,1,.07-.71,8,8,0,0,1,6.88-1.54.48.48,0,0,1,.35.61.5.5,0,0,1-.61.35,7.18,7.18,0,0,0-6,1.35A.51.51,0,0,1,209.61,124.92Z" style="fill:#263238"></path><path d="M224.25,123.79a.51.51,0,0,1-.47-.31,1.14,1.14,0,0,0-.6-.73.88.88,0,0,0-.64,0,.5.5,0,0,1-.45-.89,1.9,1.9,0,0,1,1.44-.07,2.11,2.11,0,0,1,1.18,1.29.49.49,0,0,1-.28.65A.39.39,0,0,1,224.25,123.79Z" style="fill:#263238"></path><path d="M215.08,127.88c0,.93-.43,1.68-1,1.68s-1-.75-1-1.68.43-1.69,1-1.69S215.08,126.94,215.08,127.88Z" style="fill:#263238"></path><path d="M224.09,126.67c0,.93-.44,1.69-1,1.69s-1-.76-1-1.69.43-1.69,1-1.69S224.09,125.74,224.09,126.67Z" style="fill:#263238"></path><polygon points="199.31 149.03 210.89 161.74 204.94 171.72 195.77 152.89 199.31 149.03" style="fill:#bdbdbd"></polygon><path d="M204.94,172.22h0a.52.52,0,0,1-.43-.28l-9.17-18.83a.49.49,0,0,1,.08-.55l3.54-3.87a.52.52,0,0,1,.37-.16h0a.48.48,0,0,1,.37.17l11.58,12.71a.48.48,0,0,1,.06.59l-5.95,10A.5.5,0,0,1,204.94,172.22ZM196.37,153,205,170.67l5.28-8.87-11-12Z" style="fill:#263238"></path><polygon points="215.56 161.58 222 171.56 225.05 154.5 222 151.28 215.56 161.58" style="fill:#bdbdbd"></polygon><path d="M222,172.06a.5.5,0,0,1-.42-.23l-6.44-10a.47.47,0,0,1,0-.53l6.43-10.3a.48.48,0,0,1,.38-.23.49.49,0,0,1,.41.15l3,3.22a.48.48,0,0,1,.13.43l-3,17.06a.5.5,0,0,1-.4.4Zm-5.85-10.48,5.58,8.64,2.79-15.56-2.44-2.56Z" style="fill:#263238"></path><path d="M647.39,21V17.87L585.8,27.15v3.09l13.52,17-96.84,77.22L306.89,160.25a9.46,9.46,0,0,0-5.49,3.16l-50.28,58.85-183,42.09A9.47,9.47,0,0,0,70.24,283a9.73,9.73,0,0,0,2.13-.24l186-42.8a9.46,9.46,0,0,0,5.08-3.07l50.12-58.67,194.62-35.65a9.47,9.47,0,0,0,4.2-1.91L611.12,62l13.52,17Z" style="fill:#263238"></path><path d="M70.24,283.54A10,10,0,0,1,68,263.87l182.83-42.06L301,163.09a10,10,0,0,1,5.78-3.33L502.27,124l96.35-76.83L585.41,30.55a.47.47,0,0,1-.11-.31V27.15a.49.49,0,0,1,.43-.49l61.59-9.28a.52.52,0,0,1,.4.11.52.52,0,0,1,.17.38V21a.58.58,0,0,1,0,.19l-22.75,58a.51.51,0,0,1-.86.13L611,62.7l-98.3,78.39a10,10,0,0,1-4.42,2L313.87,178.72l-50,58.53a10,10,0,0,1-5.35,3.24l-186,42.8A9.93,9.93,0,0,1,70.24,283.54ZM586.3,30.07l13.41,16.81a.51.51,0,0,1-.08.71L502.8,124.81a.52.52,0,0,1-.23.1L307,160.74a8.94,8.94,0,0,0-5.2,3l-50.27,58.84a.5.5,0,0,1-.27.16l-183,42.1a9,9,0,0,0,2,17.7,8.58,8.58,0,0,0,2-.23l186-42.79a9,9,0,0,0,4.81-2.92l50.12-58.66a.48.48,0,0,1,.29-.17l194.62-35.65a9.09,9.09,0,0,0,4-1.81L610.81,61.6a.5.5,0,0,1,.7.08l13,16.28,22.4-57.09V18.45L586.3,27.58ZM647.39,21h0Z" style="fill:#263238"></path><path d="M647.39,17.87,585.8,27.15l13.52,17-96.84,77.23L306.89,157.16a9.46,9.46,0,0,0-5.49,3.16l-50.28,58.85-183,42.09A9.47,9.47,0,0,0,70.24,280a9.73,9.73,0,0,0,2.13-.24l186-42.8a9.46,9.46,0,0,0,5.08-3.07l50.12-58.67,194.62-35.65a9.47,9.47,0,0,0,4.2-1.91L611.12,58.9l13.52,17Z" style="fill:#fff"></path><path d="M70.24,280.45A10,10,0,0,1,68,260.77l182.83-42L301,160a10,10,0,0,1,5.78-3.33l195.47-35.81L598.62,44,585.41,27.46a.51.51,0,0,1-.08-.49.49.49,0,0,1,.4-.31l61.59-9.28a.5.5,0,0,1,.47.18.51.51,0,0,1,.07.49L625.11,76a.51.51,0,0,1-.39.31.49.49,0,0,1-.47-.18L611,59.61,512.74,138a10,10,0,0,1-4.42,2L313.87,175.63l-50,58.53a10,10,0,0,1-5.35,3.24l-186,42.8A10,10,0,0,1,70.24,280.45ZM586.73,27.52l13,16.27a.51.51,0,0,1-.08.71L502.8,121.72a.52.52,0,0,1-.23.1L307,157.65a8.94,8.94,0,0,0-5.2,3l-50.27,58.84a.5.5,0,0,1-.27.16l-183,42.1a9,9,0,0,0,2,17.7,8.7,8.7,0,0,0,2-.23l186-42.79a9.07,9.07,0,0,0,4.81-2.92l50.12-58.66a.48.48,0,0,1,.29-.17L508.14,139a9.09,9.09,0,0,0,4-1.81l98.69-78.71a.5.5,0,0,1,.7.08l13,16.28L646.61,18.5Z" style="fill:#263238"></path><path d="M574.42,105.32l6.1-9.42,5-8.56a50.64,50.64,0,0,0-2.93-5.74c-1-1.35-1.83-2.77-2.23-2.58a15.71,15.71,0,0,0-1.91,2.25l2.23,7.4L576,83s-1.83.18-1.28,1.5,4,8,4,8L572.8,87s-1.73.2-1.45.93S575,94.37,575,94.37s-3.69,1.86-4.42,3.47a17.68,17.68,0,0,0-1.07,3.86Z" style="fill:#bdbdbd"></path><path d="M574.42,105.82a.47.47,0,0,1-.3-.1l-4.9-3.62a.52.52,0,0,1-.2-.48,19,19,0,0,1,1.11-4c.64-1.42,3.11-2.88,4.18-3.47-.84-1.43-3.19-5.43-3.43-6.09a.88.88,0,0,1,.07-.79c.37-.61,1.46-.78,1.79-.82a.54.54,0,0,1,.4.13l3.79,3.53c-1-2-2.37-4.67-2.71-5.46a1.4,1.4,0,0,1,0-1.31,2.32,2.32,0,0,1,1.65-.88.5.5,0,0,1,.44.18l3.16,3.8-1.52-5a.49.49,0,0,1,.07-.44,11.94,11.94,0,0,1,2.1-2.41c.7-.33,1.29.51,2.27,1.91.19.27.38.55.59.83a50.87,50.87,0,0,1,3,5.83.51.51,0,0,1,0,.45l-5,8.57-6.11,9.43a.49.49,0,0,1-.33.22Zm-4.36-4.34,4.23,3.12,5.81-9L585,87.31a48.06,48.06,0,0,0-2.77-5.41l-.6-.85a12.63,12.63,0,0,0-1.13-1.48,21,21,0,0,0-1.46,1.8l2.16,7.16a.49.49,0,0,1-.25.58.51.51,0,0,1-.62-.12l-4.55-5.47a1.14,1.14,0,0,0-.65.36s-.08.14,0,.4c.54,1.29,4,7.87,4,7.94a.51.51,0,0,1-.14.63.5.5,0,0,1-.64,0l-5.71-5.31a1.84,1.84,0,0,0-.83.31c.21.43,2.29,4,3.64,6.3a.51.51,0,0,1,0,.4.55.55,0,0,1-.25.31c-1,.49-3.66,2-4.19,3.23A16.66,16.66,0,0,0,570.06,101.48Z" style="fill:#263238"></path><path d="M579.73,80s3.53,6.53,3.74,7.94" style="fill:#fff"></path><path d="M583.46,88.43A.5.5,0,0,1,583,88c-.14-1-2.28-5.18-3.68-7.77a.49.49,0,0,1,.2-.68.51.51,0,0,1,.68.2c.36.68,3.58,6.65,3.79,8.11a.5.5,0,0,1-.42.56Z" style="fill:#263238"></path><line x1="575.01" y1="94.37" x2="575.43" y2="97.01" style="fill:#fff"></line><path d="M575.43,97.51a.5.5,0,0,1-.49-.42l-.42-2.64a.49.49,0,0,1,.41-.57.51.51,0,0,1,.58.41l.42,2.64a.5.5,0,0,1-.42.57Z" style="fill:#263238"></path><path d="M477.93,149.59s3.22-3.94,3.44-4.73,5.05-2.91,6.28-3.81,2.36-1.91,2.69-.9a3.05,3.05,0,0,1-.33,2.36,15.88,15.88,0,0,1-3.26,2.35c-.33.12,4.83-.11,4.83-.11l4.26-5.38s1.12-.11,1.34.45.67,6.84.67,6.84l-2.46,4.26-16.71,5.27S474.49,154.87,477.93,149.59Z" style="fill:#bdbdbd"></path><path d="M478.68,156.69l-.15,0a3.78,3.78,0,0,1-2.25-2.18c-.5-1.41-.09-3.15,1.23-5.18l0,0a36.4,36.4,0,0,0,3.35-4.54c.18-.63,1.36-1.31,4-2.71,1-.54,2-1.06,2.44-1.37l.43-.32c.94-.71,1.68-1.26,2.36-1.05a1,1,0,0,1,.67.72,3.53,3.53,0,0,1-.37,2.73,8,8,0,0,1-1.95,1.64l2.83-.11,4.11-5.2a.49.49,0,0,1,.35-.19c.25,0,1.51-.11,1.86.76.23.59.6,5.5.7,7a.49.49,0,0,1-.06.29l-2.47,4.26a.49.49,0,0,1-.28.23l-16.71,5.27Zm-.34-6.81c-1.13,1.74-1.5,3.17-1.12,4.27a2.73,2.73,0,0,0,1.48,1.51l16.35-5.16,2.29-4c-.21-2.95-.5-6.16-.63-6.54,0-.07-.32-.14-.62-.14l-4.12,5.2a.5.5,0,0,1-.37.19c-5.25.23-5.26.23-5.35-.29a.52.52,0,0,1,.34-.57,17.89,17.89,0,0,0,3-2.12,2.58,2.58,0,0,0,.3-2l-.05-.1h0a5.9,5.9,0,0,0-1.43.92l-.45.33a25,25,0,0,1-2.56,1.44,19,19,0,0,0-3.54,2.14C481.62,145.82,479.13,148.91,478.34,149.88Z" style="fill:#263238"></path><path d="M490.34,149.18a.5.5,0,0,1-.44-.27.51.51,0,0,1,.21-.68l2.89-1.5,3.74-7.15a.5.5,0,0,1,.89.47l-3.82,7.29a.53.53,0,0,1-.21.21l-3,1.57A.46.46,0,0,1,490.34,149.18Z" style="fill:#263238"></path><path d="M491.8,150.63a.52.52,0,0,1-.46-.29.49.49,0,0,1,.26-.66l2.88-1.28,2.83-4.91a.5.5,0,0,1,.68-.18.51.51,0,0,1,.19.68l-2.92,5a.52.52,0,0,1-.23.21l-3,1.34A.45.45,0,0,1,491.8,150.63Z" style="fill:#263238"></path><path d="M196.43,155.52s-22.29,5.11-22.76,6.5-23,36.46-23,39,6.5,40.41,6.5,40.41l10.69-2.32,1.62-37.86,21.37-22.53" style="fill:#bdbdbd"></path><path d="M157.18,242a.49.49,0,0,1-.28-.09.47.47,0,0,1-.21-.33c-.27-1.54-6.51-37.92-6.51-40.49,0-1.71,7.64-14.18,16.87-29.08,3.07-4.94,6-9.62,6.15-10.1.45-1.37,12.82-4.47,23.12-6.83a.5.5,0,0,1,.6.37.5.5,0,0,1-.38.6c-10.26,2.36-21.61,5.35-22.44,6.26-.12.42-2.1,3.62-6.2,10.23-5.82,9.4-16.67,26.91-16.72,28.55,0,2,4.14,26.59,6.41,39.81l9.79-2.13L169,201.25a.52.52,0,0,1,.14-.32L190.5,178.4a.49.49,0,0,1,.7,0,.5.5,0,0,1,0,.71L170,201.48l-1.62,37.67a.49.49,0,0,1-.39.47l-10.68,2.32Z" style="fill:#263238"></path><polygon points="157.18 241.45 158.7 247.92 169.04 244.61 167.87 239.13 157.18 241.45" style="fill:#bdbdbd"></polygon><path d="M158.7,248.42a.45.45,0,0,1-.25-.07.49.49,0,0,1-.24-.32l-1.52-6.47a.52.52,0,0,1,.07-.38.5.5,0,0,1,.32-.22l10.68-2.32a.47.47,0,0,1,.38.07.45.45,0,0,1,.21.31l1.18,5.49a.51.51,0,0,1-.34.58l-10.34,3.3A.4.4,0,0,1,158.7,248.42Zm-.92-6.59,1.28,5.45,9.39-3-1-4.56Z" style="fill:#263238"></path><path d="M169,244.61l7.47,5.6s.14,9,.28,9.63a1.32,1.32,0,0,1-1.58,1.43c-1.15-.14-1.43-1.58-1.43-1.58s.72,3.74.14,4.17a2,2,0,0,1-1.87.57,3,3,0,0,1-1.72-1.15s-5.46.15-6.75-.28-4-3.74-4-3.74l-.86-11.34Z" style="fill:#fff"></path><path d="M172.52,265a3.62,3.62,0,0,1-.54,0,3.3,3.3,0,0,1-1.88-1.14c-1.18,0-5.46.09-6.68-.32-1.39-.46-4-3.54-4.25-3.89a.57.57,0,0,1-.11-.28L158.2,248a.49.49,0,0,1,.35-.52l10.34-3.3a.52.52,0,0,1,.45.07l7.47,5.6a.56.56,0,0,1,.2.4c.05,3.42.17,9,.27,9.51a1.67,1.67,0,0,1-.42,1.44,1.91,1.91,0,0,1-1.71.61,2,2,0,0,1-.57-.17c.15,1.47,0,2.36-.36,2.66l-.12.09A2.31,2.31,0,0,1,172.52,265Zm-2.19-2.19a.52.52,0,0,1,.41.21,2.47,2.47,0,0,0,1.38.95,1.43,1.43,0,0,0,1.38-.39l.12-.09a13.39,13.39,0,0,0-.33-3.67.5.5,0,0,1,.39-.59.51.51,0,0,1,.59.39s.23,1.09,1,1.19a.93.93,0,0,0,.83-.28.73.73,0,0,0,.2-.54c-.14-.57-.26-7.11-.3-9.49l-7.07-5.3-9.71,3.1.82,10.8c1,1.24,2.87,3.18,3.69,3.45a36.11,36.11,0,0,0,6.58.26Z" style="fill:#263238"></path><polygon points="289.55 212.34 283.7 213.47 290.91 201.19 297.4 200.43 289.55 212.34" style="fill:#fff"></polygon><path d="M283.7,214a.52.52,0,0,1-.41-.21.5.5,0,0,1,0-.54l7.21-12.28a.51.51,0,0,1,.38-.25l6.48-.76a.5.5,0,0,1,.49.24.49.49,0,0,1,0,.53L290,212.62a.52.52,0,0,1-.32.22L283.8,214Zm7.52-12.31-6.53,11.11,4.55-.88,7.15-10.84Zm-1.67,10.68h0Z" style="fill:#263238"></path><path d="M294.69,196.59s2.72,6.18,2.87,6.94,2.41-2.41,2.26-3.77-3.32-4.83-3.32-4.83Z" style="fill:#fff"></path><path d="M297.67,204.14a.6.6,0,0,1-.6-.51c-.11-.51-1.79-4.47-2.84-6.84a.53.53,0,0,1,.12-.57l1.81-1.65a.47.47,0,0,1,.36-.13.46.46,0,0,1,.35.16c.55.6,3.28,3.66,3.45,5.1s-1.68,4.3-2.55,4.43Zm-2.38-7.42c.57,1.29,2,4.7,2.58,6.15.58-.68,1.54-2.28,1.45-3.06s-1.68-2.83-2.85-4.16Z" style="fill:#263238"></path><path d="M294.69,196.59a24.18,24.18,0,0,0-2.28,2.83c0,.3,2.46,8.39,3.15,8.39s2.17-3.55,2.17-3.55Z" style="fill:#fff"></path><path d="M295.56,208.31c-1.31,0-3.65-8.8-3.65-8.89s0-.48,2.41-3.16a.5.5,0,0,1,.46-.16.52.52,0,0,1,.38.31l3,7.66a.55.55,0,0,1,0,.38C296.59,208.31,295.81,208.31,295.56,208.31Zm-2.64-8.82a52.73,52.73,0,0,0,2.73,7.72,17.4,17.4,0,0,0,1.54-3l-2.66-6.72A25.23,25.23,0,0,0,292.92,199.49Z" style="fill:#263238"></path><path d="M292.41,199.42s-2.08,2-2.08,2.57,1.09,8.78,2.08,8.68,3.15-2.86,3.15-2.86Z" style="fill:#fff"></path><path d="M292.39,211.17a.73.73,0,0,1-.51-.21c-1.18-1.07-2.05-8.66-2.05-9,0-.67,1.22-2,2.23-2.93a.51.51,0,0,1,.46-.12.48.48,0,0,1,.35.31l3.16,8.38a.51.51,0,0,1-.08.49c-.54.68-2.38,2.93-3.49,3Zm.16-.95h0Zm-.34-9.9a7.6,7.6,0,0,0-1.38,1.7c0,.72,1,7.12,1.65,8.12a10.66,10.66,0,0,0,2.51-2.42Z" style="fill:#263238"></path><path d="M291,207.22a28.54,28.54,0,0,0-1.77-3.46c-.3-.19-1.78,1.48-1.78,2s1.88,6.21,2.08,6.6,3.25-.78,2.86-1.67S291,207.22,291,207.22Z" style="fill:#fff"></path><path d="M289.79,212.92a.69.69,0,0,1-.69-.35,67.32,67.32,0,0,1-2.13-6.83c0-.7,1.25-2.07,1.82-2.38a.7.7,0,0,1,.74,0c.12.08.41.27,2,3.66v0s1,2.56,1.37,3.42c.3.68-.24,1.41-1.5,2A4.07,4.07,0,0,1,289.79,212.92Zm-.72-8.55a4.87,4.87,0,0,0-1.1,1.4c0,.43,1.52,5,1.94,6.15.59-.09,1.95-.75,2-1.1-.38-.82-1.29-3.18-1.38-3.41C290,206.25,289.39,204.93,289.07,204.37Z" style="fill:#263238"></path><path d="M322.9,171.55s-.24,6.24.12,6.78,2.54.53,2.91,0-.13-5.19-.49-6.12A1.47,1.47,0,0,0,322.9,171.55Z" style="fill:#fff"></path><path d="M324.48,179.23c-.44,0-1.49-.06-1.87-.62s-.32-4.16-.21-7.08a.53.53,0,0,1,.17-.36,2.05,2.05,0,0,1,1.86-.59,2.29,2.29,0,0,1,1.48,1.45c.32.83,1,5.79.43,6.58C326,179.17,324.91,179.23,324.48,179.23Zm-1.08-7.44a40.45,40.45,0,0,0,.06,6.3,3.17,3.17,0,0,0,2.06-.06,21.44,21.44,0,0,0-.54-5.64,1.26,1.26,0,0,0-.79-.83A1,1,0,0,0,323.4,171.79Z" style="fill:#263238"></path><path d="M325.85,171.35s1.14-.85,1.67-.5,1.44,4.9,1.52,6a1.84,1.84,0,0,1-1.78,1.85c-.76-.07-.95.47-1.22-.33A65.11,65.11,0,0,1,325.85,171.35Z" style="fill:#fff"></path><path d="M326.4,179.27c-.4,0-.65-.25-.83-.78a57.59,57.59,0,0,1-.22-7.15.5.5,0,0,1,.2-.39c.33-.25,1.48-1,2.25-.52s1.7,5.83,1.73,6.35a2.32,2.32,0,0,1-2.32,2.38,1.27,1.27,0,0,0-.45.05A1.23,1.23,0,0,1,326.4,179.27Zm.2-.91h0Zm-.25-6.75a54,54,0,0,0,.17,6.56.19.19,0,0,1,0,.07,2.05,2.05,0,0,1,.77-.08,1.14,1.14,0,0,0,.83-.38,1.23,1.23,0,0,0,.4-.93,24,24,0,0,0-1.34-5.62A2.12,2.12,0,0,0,326.35,171.61Z" style="fill:#263238"></path><path d="M328.54,172.2s-.07-1.21,1-1.28,1.85,2.27,2.2,4.55-1.06,3.05-1.84,3.05a2,2,0,0,1-1.35-.78Z" style="fill:#fff"></path><path d="M329.89,179a2.42,2.42,0,0,1-1.76-1,.5.5,0,0,1-.09-.29v-5.53a1.62,1.62,0,0,1,1.46-1.79c1.76-.13,2.49,3.44,2.73,5a3.29,3.29,0,0,1-.62,2.78A2.33,2.33,0,0,1,329.89,179Zm-.85-1.46a1.32,1.32,0,0,0,.85.46,1.37,1.37,0,0,0,1-.5,2.4,2.4,0,0,0,.39-2c-.45-2.86-1.24-4.18-1.67-4.12s-.54.59-.53.75v5.39Z" style="fill:#263238"></path><path d="M331.66,173.48s-.14-2.06.07-2.13a1.2,1.2,0,0,1,1.78.57c.57,1.2,1.42,5.32,1,6s-2.2.21-2.48-.07a1,1,0,0,1-.29-.64Z" style="fill:#fff"></path><path d="M333.59,178.81a3.28,3.28,0,0,1-1.93-.58,1.53,1.53,0,0,1-.43-1l-.07-3.74c-.16-2.43.1-2.52.41-2.63a1.67,1.67,0,0,1,2.39.83c.48,1,1.57,5.5,1,6.51a1.31,1.31,0,0,1-1,.59Zm-1.46-7.08a14.77,14.77,0,0,0,0,1.71v0l.07,3.76a.49.49,0,0,0,.14.3,2.8,2.8,0,0,0,1.48.26.34.34,0,0,0,.22-.1c.26-.56-.42-4.31-1-5.56C332.82,171.62,332.55,171.58,332.13,171.73Zm-.21.08h0Z" style="fill:#263238"></path><path d="M426.37,163.72l9-5.5,7.76-5.23a48.54,48.54,0,0,0-.14-6.07c-.28-1.55-.42-3.1-.85-3.1a15,15,0,0,0-2.54,1.13l-1.13,7.2-1.69-6.78s-1.64-.59-1.7.75.13,8.41.13,8.41l-2.76-7.06s-1.54-.54-1.61.2.47,7,.47,7-3.9.07-5.17,1.14a17,17,0,0,0-2.49,2.84Z" style="fill:#fff"></path><path d="M426.37,164.22a.3.3,0,0,1-.13,0,.46.46,0,0,1-.31-.25l-2.68-5.08a.47.47,0,0,1,0-.51,17.05,17.05,0,0,1,2.57-2.94c1.12-.94,3.79-1.18,5-1.24-.13-1.59-.49-5.9-.43-6.56a.88.88,0,0,1,.4-.66,2.5,2.5,0,0,1,1.88,0,.5.5,0,0,1,.3.3l1.72,4.39c-.05-2.13-.1-4.79-.06-5.58a1.35,1.35,0,0,1,.57-1.12,2.24,2.24,0,0,1,1.8-.08.52.52,0,0,1,.31.35l1.1,4.39.75-4.77a.5.5,0,0,1,.26-.37,10.59,10.59,0,0,1,2.77-1.18c.76,0,.92,1,1.18,2.56.05.31.1.63.16,1a46.56,46.56,0,0,1,.15,6.18.5.5,0,0,1-.22.4l-7.76,5.22-9.06,5.52A.48.48,0,0,1,426.37,164.22Zm-2.09-5.54,2.29,4.34,8.58-5.23,7.53-5.07a44.84,44.84,0,0,0-.14-5.71c-.06-.33-.12-.65-.17-1a12.28,12.28,0,0,0-.34-1.68,19.15,19.15,0,0,0-1.93.91L439,152.22a.52.52,0,0,1-.48.43.47.47,0,0,1-.5-.38l-1.63-6.49a1,1,0,0,0-.65,0s-.12.08-.13.34c-.07,1.31.13,8.29.13,8.36a.5.5,0,0,1-.4.51.51.51,0,0,1-.56-.31l-2.67-6.84a2.58,2.58,0,0,0-.74-.09c0,.73.27,4.53.47,6.84a.49.49,0,0,1-.13.38.48.48,0,0,1-.36.16c-1,0-3.93.24-4.86,1A14.88,14.88,0,0,0,424.28,158.68Z" style="fill:#263238"></path><path d="M441.17,153.14a.39.39,0,0,1-.15,0,.5.5,0,0,1-.33-.63c.28-.87.18-5.32.05-8.09a.5.5,0,0,1,.47-.53.48.48,0,0,1,.52.48c0,.72.33,7.12-.09,8.44A.48.48,0,0,1,441.17,153.14Z" style="fill:#263238"></path><path d="M430.63,157.58l-.14,0a.5.5,0,0,1-.34-.63l.72-2.41a.5.5,0,0,1,1,.28l-.72,2.42A.49.49,0,0,1,430.63,157.58Z" style="fill:#263238"></path><rect x="158.31" y="398.13" width="128.74" height="76.88" style="fill:#263238"></rect><path d="M287.05,475.51H158.31a.51.51,0,0,1-.5-.5V398.13a.51.51,0,0,1,.5-.5H287.05a.5.5,0,0,1,.5.5V475A.5.5,0,0,1,287.05,475.51Zm-128.24-1H286.55V398.63H158.81Z" style="fill:#263238"></path><rect x="143.29" y="398.13" width="128.74" height="76.88" style="fill:#d4d4d4"></rect><path d="M272,475.51H143.29a.51.51,0,0,1-.5-.5V398.13a.51.51,0,0,1,.5-.5H272a.5.5,0,0,1,.5.5V475A.5.5,0,0,1,272,475.51Zm-128.24-1H271.53V398.63H143.79Z" style="fill:#263238"></path><rect x="312.05" y="372.46" width="128.74" height="102.55" style="fill:#263238"></rect><path d="M440.78,475.51H312.05a.5.5,0,0,1-.5-.5V372.46a.5.5,0,0,1,.5-.5H440.78a.5.5,0,0,1,.5.5V475A.5.5,0,0,1,440.78,475.51Zm-128.23-1H440.28V373H312.55Z" style="fill:#263238"></path><rect x="297.03" y="372.46" width="128.74" height="102.55" style="fill:#d4d4d4"></rect><path d="M425.76,475.51H297a.5.5,0,0,1-.5-.5V372.46a.5.5,0,0,1,.5-.5H425.76a.5.5,0,0,1,.5.5V475A.5.5,0,0,1,425.76,475.51Zm-128.23-1H425.26V373H297.53Z" style="fill:#263238"></path><rect x="465.78" y="335.12" width="128.74" height="139.89" style="fill:#263238"></rect><path d="M594.52,475.51H465.78a.51.51,0,0,1-.5-.5V335.12a.5.5,0,0,1,.5-.5H594.52a.5.5,0,0,1,.5.5V475A.51.51,0,0,1,594.52,475.51Zm-128.24-1H594V335.62H466.28Z" style="fill:#263238"></path><rect x="450.76" y="335.12" width="128.74" height="139.89" style="fill:#d4d4d4"></rect><path d="M579.5,475.51H450.76a.51.51,0,0,1-.5-.5V335.12a.5.5,0,0,1,.5-.5H579.5a.5.5,0,0,1,.5.5V475A.51.51,0,0,1,579.5,475.51Zm-128.24-1H579V335.62H451.26Z" style="fill:#263238"></path></g></svg>
